<svg xmlns="http://www.w3.org/2000/svg" version="1.1" xmlns:xlink="http://www.w3.org/1999/xlink" xmlns:svgjs="http://svgjs.dev/svgjs" width="128" height="128" viewBox="0 0 128 128"><g transform="matrix(0.8046875,0,0,0.8046875,12.333870967741937,12.333870967741937)"><svg viewBox="0 0 155 155" data-background-color="#f8f8f8" preserveAspectRatio="xMidYMid meet" height="128" width="128" xmlns="http://www.w3.org/2000/svg" xmlns:xlink="http://www.w3.org/1999/xlink"><g id="tight-bounds" transform="matrix(1,0,0,1,0.25,0.25)"><svg viewBox="0 0 154.5 154.5" height="154.5" width="154.5"><g><svg></svg></g><g><svg viewBox="0 0 154.5 154.5" height="154.5" width="154.5"><g transform="matrix(1,0,0,1,47.746371,65.5983130142132)"><svg viewBox="0 0 59.00725799999999 23.303373971573606" height="23.303373971573606" width="59.00725799999999"><g><svg viewBox="0 0 59.00725799999999 23.303373971573606" height="23.303373971573606" width="59.00725799999999"><g><svg viewBox="0 0 59.00725799999999 23.303373971573606" height="23.303373971573606" width="59.00725799999999"><g id="textblocktransform"><svg viewBox="0 0 59.00725799999999 23.303373971573606" height="23.303373971573606" width="59.00725799999999" id="textblock"><g><svg viewBox="0 0 59.00725799999999 23.303373971573606" height="23.303373971573606" width="59.00725799999999"><g transform="matrix(1,0,0,1,0,0)"><svg width="59.00725799999999" viewBox="1 -38.9 98.5 38.9" height="23.303373971573606" data-palette-color="#ffffff"><path d="M1 0L1-8.2 3.5-8.2 3.5-30.65 1-30.65 1-38.9 21.3-38.9Q29.65-38.9 34.58-34.33 39.5-29.75 39.5-19.45L39.5-19.45Q39.5-9.15 34.58-4.58 29.65 0 21.3 0L21.3 0 1 0ZM17.5-8.2L20.4-8.2Q22.1-8.2 22.95-9.1 23.8-10 23.8-11.9L23.8-11.9 23.8-27Q23.8-30.7 20.4-30.7L20.4-30.7 17.5-30.7 17.5-8.2ZM60.2 0L41.2 0 41.2-8.2 43.7-8.2 43.7-30.7 41.2-30.7 41.2-38.9 60.2-38.9 60.2-30.7 57.7-30.7 57.7-8.2 60.2-8.2 60.2 0ZM99.5-38.9L99.5-26.8 90.9-26.8 90.9-30.7 87.7-30.7 87.7-8.2 91.2-8.2 91.2 0 70.2 0 70.2-8.2 73.7-8.2 73.7-30.7 70.5-30.7 70.5-26.8 61.9-26.8 61.9-38.9 99.5-38.9Z" opacity="1" transform="matrix(1,0,0,1,0,0)" fill="#ffffff" class="wordmark-text-0" data-fill-palette-color="primary" id="text-0"></path></svg></g></svg></g></svg></g></svg></g></svg></g></svg></g><path d="M47.746 59.598L47.746 1 106.754 1 106.754 59.598 104.652 59.598 104.652 3.102 49.848 3.102 49.848 59.598 47.746 59.598M47.746 94.902L47.746 153.5 106.754 153.5 106.754 94.902 104.652 94.902 104.652 151.398 49.848 151.398 49.848 94.902 47.746 94.902" fill="#ffffff" stroke="transparent" data-fill-palette-color="primary"></path></svg></g><defs></defs></svg><rect width="154.5" height="154.5" fill="none" stroke="none" visibility="hidden"></rect></g></svg></g></svg>