<?xml version="1.0" encoding="UTF-8"?> <svg xmlns="http://www.w3.org/2000/svg" width="224" height="48" viewBox="0 0 224 48" fill="none"> <path d="M210.216 26.619V30.0476H219.023C218.719 36.9933 215.579 42.7553 210.233 44.8098C202.039 47.9595 191.782 41.2041 187.323 29.7213C182.863 18.2384 185.891 6.37644 194.086 3.22679C200.89 0.611468 209.136 4.82552 214.285 12.9048H223.57C219.544 5.23517 211.474 0 202.175 0C188.852 0 178.052 10.7452 178.052 24C178.052 37.2548 188.852 48 202.175 48C208.734 48 214.681 45.3958 219.03 41.17L224.001 48V26.619H210.216Z" fill="#FAF7F7"></path> <path fill-rule="evenodd" clip-rule="evenodd" d="M141.485 47.8095H148.76V30.0476H153.881L167.905 47.8095H175.18L162.544 31L157.04 30.0476H158.261C166.548 30.0476 173.266 23.3639 173.266 15.119C173.266 6.87423 166.548 0.190476 158.261 0.190476H141.485V47.8095ZM157.495 3.61905H148.76V26.619H157.495C163.879 26.619 169.054 21.4703 169.054 15.119C169.054 8.76776 163.879 3.61905 157.495 3.61905Z" fill="#FAF7F7"></path> <path d="M119.898 47.8095H111.283L93.2384 0.190476H100.944L117.505 44.381L133.922 0.190476H137.655L119.898 47.8095Z" fill="#FAF7F7"></path> <path d="M119.898 47.8095H111.283L93.2384 0.190476H100.944L117.505 44.381L133.922 0.190476H137.655L119.898 47.8095Z" fill="#FAF7F7"></path> <path d="M98.7905 44.381V47.8095H68.9238V0.190476H76.199V44.381H98.7905Z" fill="#FAF7F7"></path> <path d="M38.9128 0.19043H59.3504L20.4855 35.4285H0L38.9128 0.19043Z" fill="#FAF7F7"></path> <path d="M20.4855 35.4285H40.9231L54.5162 47.8095H34.0786L20.4855 35.4285Z" fill="#FAF7F7"></path> </svg> 