<?xml version="1.0" standalone="no"?>
<!DOCTYPE svg PUBLIC "-//W3C//DTD SVG 20010904//EN"
 "http://www.w3.org/TR/2001/REC-SVG-20010904/DTD/svg10.dtd">
<svg version="1.0" xmlns="http://www.w3.org/2000/svg"
 width="362.000000pt" height="80.000000pt" viewBox="0 0 362.000000 80.000000"
 preserveAspectRatio="xMidYMid meet">

<g transform="translate(0.000000,80.000000) scale(0.100000,-0.100000)"
fill="#000000" stroke="none">
<path d="M306 790 c-65 -17 -155 -71 -198 -119 -80 -90 -120 -217 -103 -326
l7 -47 31 29 c151 139 413 289 569 327 l27 6 -39 -72 c-21 -40 -46 -104 -54
-141 -35 -149 -88 -184 -169 -111 -37 34 -43 36 -96 32 -41 -3 -81 -16 -143
-47 -105 -51 -114 -61 -96 -95 l13 -25 46 30 c63 41 149 69 208 69 44 0 55 -4
85 -35 51 -51 107 -44 206 25 35 24 88 40 143 42 44 2 46 3 52 38 3 19 1 62
-5 94 -30 184 -184 323 -368 332 -42 2 -94 -1 -116 -6z"/>
<path d="M1040 410 l0 -170 35 0 35 0 0 60 0 60 50 0 c87 0 130 37 130 114 0
72 -60 105 -187 106 l-63 0 0 -170z m161 100 c22 -12 26 -59 7 -78 -7 -7 -31
-12 -55 -12 l-43 0 0 50 0 50 36 0 c19 0 44 -5 55 -10z"/>
<path d="M1827 573 c-4 -3 -7 -17 -7 -30 0 -20 5 -23 35 -23 32 0 35 2 35 30
0 26 -4 30 -28 30 -16 0 -32 -3 -35 -7z"/>
<path d="M1996 559 c-16 -12 -26 -30 -26 -46 0 -16 -7 -27 -20 -30 -13 -3 -20
-14 -20 -29 0 -17 6 -24 20 -24 19 0 20 -7 20 -95 l0 -95 30 0 30 0 0 95 0 95
30 0 c25 0 30 4 30 25 0 20 -5 25 -24 25 -14 0 -28 5 -31 10 -10 16 15 40 41
40 19 0 24 5 24 25 0 22 -4 25 -39 25 -24 0 -48 -8 -65 -21z"/>
<path d="M2130 551 c0 -29 3 -31 36 -31 33 0 35 2 32 28 -2 22 -8 28 -35 30
-31 3 -33 1 -33 -27z"/>
<path d="M2600 410 l0 -170 30 0 30 0 1 108 0 107 37 -105 c36 -101 38 -105
66 -105 28 0 31 4 65 105 l36 105 3 -107 3 -108 29 0 30 0 0 170 0 170 -39 0
-39 0 -33 -97 c-58 -177 -50 -174 -99 -29 l-42 126 -39 0 -39 0 0 -170z"/>
<path d="M3260 521 c0 -20 -6 -30 -20 -34 -12 -3 -20 -14 -20 -26 0 -14 6 -21
20 -21 18 0 20 -7 20 -72 0 -88 15 -121 55 -128 50 -9 75 -1 75 26 0 17 -6 23
-27 26 -27 3 -28 5 -31 76 l-3 72 31 0 c27 0 31 3 28 23 -2 16 -11 23 -30 25
-24 3 -28 8 -28 33 0 27 -3 29 -35 29 -32 0 -35 -3 -35 -29z"/>
<path d="M1325 465 c-14 -13 -25 -28 -25 -33 0 -17 54 -22 63 -6 12 22 64 18
77 -6 13 -23 9 -25 -63 -35 -27 -4 -57 -15 -68 -26 -22 -22 -25 -76 -6 -102
19 -27 81 -33 114 -12 18 12 28 14 31 7 2 -7 17 -12 33 -12 l29 0 0 91 c0 130
-19 158 -108 159 -43 0 -57 -5 -77 -25z m117 -140 c-5 -27 -32 -46 -62 -43
-35 4 -35 49 0 59 42 12 65 6 62 -16z"/>
<path d="M1588 461 c-31 -28 -33 -33 -33 -100 0 -63 3 -73 27 -97 19 -20 40
-28 76 -32 44 -4 53 -1 80 24 17 16 33 39 37 52 6 20 3 22 -29 22 -25 0 -36
-5 -36 -15 0 -14 -29 -35 -49 -35 -36 0 -56 93 -31 141 14 26 56 25 70 -2 8
-14 19 -19 38 -17 36 4 39 31 8 63 -20 20 -35 25 -75 25 -42 0 -56 -5 -83 -29z"/>
<path d="M2288 461 c-31 -28 -33 -33 -33 -100 0 -63 3 -73 27 -97 19 -20 40
-28 76 -32 44 -4 53 -1 80 24 17 16 33 39 37 52 6 20 3 22 -29 22 -20 0 -36
-4 -36 -9 0 -14 -30 -41 -45 -41 -39 0 -62 90 -35 141 14 26 56 25 70 -2 8
-14 19 -19 38 -17 36 4 39 31 8 63 -20 20 -35 25 -75 25 -42 0 -56 -5 -83 -29z"/>
<path d="M3022 474 c-50 -34 -66 -112 -37 -180 18 -43 71 -68 128 -61 72 10
122 87 57 87 -16 0 -30 -5 -30 -10 0 -6 -11 -15 -25 -22 -19 -9 -29 -8 -50 6
-14 9 -25 25 -25 36 0 18 7 20 85 20 77 0 85 2 85 19 0 30 -19 73 -42 99 -26
27 -111 31 -146 6z m110 -48 c18 -27 7 -36 -43 -36 -42 0 -50 3 -47 17 7 36
70 49 90 19z"/>
<path d="M3446 469 c-14 -11 -26 -27 -26 -35 0 -19 44 -18 75 2 29 19 65 4 65
-26 0 -16 -7 -20 -35 -20 -20 0 -51 -7 -70 -14 -64 -27 -72 -101 -15 -131 37
-19 53 -19 90 0 17 9 30 11 30 5 0 -5 14 -10 30 -10 l30 0 0 105 c0 94 -2 106
-22 125 -31 28 -115 28 -152 -1z m114 -139 c0 -26 -43 -54 -70 -45 -25 8 -26
40 -2 54 9 6 29 11 45 11 20 0 27 -5 27 -20z"/>
<path d="M1830 360 l0 -120 30 0 30 0 0 120 0 120 -30 0 -30 0 0 -120z"/>
<path d="M2130 360 l0 -120 35 0 35 0 0 120 0 120 -35 0 -35 0 0 -120z"/>
<path d="M676 274 c-22 -8 -62 -28 -89 -46 -31 -20 -66 -33 -95 -36 -43 -4
-50 -1 -85 33 -38 37 -40 37 -98 32 -40 -3 -85 -18 -144 -46 -47 -23 -85 -45
-85 -50 0 -5 7 -15 16 -22 14 -11 22 -10 56 10 59 34 145 61 195 61 35 0 50
-6 82 -35 56 -51 113 -44 211 25 14 10 45 23 70 31 42 11 70 32 70 51 0 13
-61 8 -104 -8z"/>
<path d="M674 164 c-27 -15 -67 -36 -88 -47 -61 -32 -103 -28 -138 13 -27 33
-32 35 -91 35 -49 -1 -77 -8 -134 -34 -40 -19 -73 -37 -73 -40 0 -3 9 -12 19
-18 16 -10 30 -8 78 13 32 15 85 29 120 31 60 5 62 5 97 -31 47 -46 90 -48
162 -7 46 27 112 96 102 107 -3 2 -27 -8 -54 -22z"/>
<path d="M330 66 c-25 -6 -54 -17 -65 -23 -19 -11 -19 -12 10 -24 34 -14 209
-18 222 -6 4 5 -7 22 -25 38 -36 32 -68 36 -142 15z"/>
</g>
</svg>
