<svg width="158" height="39" viewBox="0 0 158 39" fill="none" xmlns="http://www.w3.org/2000/svg">
<path d="M32.1011 22.2107C32.5157 21.9301 32.7231 21.7898 32.7736 21.5723C32.8242 21.3548 32.7 21.1375 32.4516 20.7028L26.3579 10.0388C26.0003 9.41316 25.8216 9.10033 25.5318 9.06963C25.2421 9.03893 25.0017 9.30735 24.521 9.84421L1.27712 35.8036C0.54644 36.6196 0.181099 37.0277 0.331711 37.3647C0.482323 37.7017 1.03 37.7017 2.12536 37.7017H8.85823C9.03143 37.7017 9.11803 37.7017 9.19958 37.6767C9.28113 37.6517 9.35286 37.6032 9.49631 37.5061L32.1011 22.2107Z" fill="url(#paint0_linear_385_109)"/>
<path d="M25.4453 9.22533C25.6015 8.95297 25.6796 8.81679 25.6806 8.6672C25.6816 8.51762 25.6054 8.38039 25.4529 8.10592L21.7768 1.48895C21.3374 0.698109 21.1178 0.302687 20.7832 0.302368C20.4485 0.302049 20.2281 0.697052 19.7872 1.48706L0.5226 36.0083C0.101713 36.7625 -0.10873 37.1396 0.056284 37.4206C0.221298 37.7017 0.653149 37.7017 1.51685 37.7017H8.45369C8.77552 37.7017 8.93644 37.7017 9.06881 37.625C9.20119 37.5483 9.28124 37.4087 9.44136 37.1296L25.4453 9.22533Z" fill="url(#paint1_linear_385_109)"/>
<path d="M9.40679 22.203C8.99707 21.9258 8.79221 21.7871 8.74074 21.5721C8.68928 21.357 8.8092 21.1407 9.04905 20.708L15.0265 9.92515C15.3801 9.28736 15.5568 8.96846 15.8486 8.93559C16.1404 8.90272 16.3837 9.17428 16.8703 9.71742L40.2408 35.8033C40.972 36.6194 41.3376 37.0275 41.187 37.3646C41.0364 37.7017 40.4885 37.7017 39.3928 37.7017H32.6609C32.4877 37.7017 32.4011 37.7017 32.3196 37.6767C32.238 37.6517 32.1663 37.6031 32.0228 37.5061L9.40679 22.203Z" fill="url(#paint2_linear_385_109)"/>
<path d="M16.1193 9.08552C15.9645 8.81195 15.8871 8.67516 15.8871 8.52541C15.887 8.37567 15.9642 8.2388 16.1188 7.96507L19.7832 1.47387C20.2261 0.689239 20.4476 0.296923 20.7814 0.298221C21.1153 0.299519 21.3337 0.693545 21.7705 1.4816L40.9105 36.0111C41.328 36.7644 41.5367 37.141 41.3716 37.4213C41.2065 37.7017 40.7758 37.7017 39.9146 37.7017H32.9759C32.652 37.7017 32.49 37.7017 32.3571 37.6242C32.2242 37.5467 32.1444 37.4057 31.9849 37.1238L16.1193 9.08552Z" fill="url(#paint3_linear_385_109)"/>
<path d="M51.8728 37.5869H44.7236C44.7236 37.5869 44.8865 37.4981 45.2121 37.3205C45.5673 37.1132 45.9078 36.8024 46.2334 36.388C46.559 35.9439 46.7218 35.3519 46.7218 34.6118V20.6243C46.7218 19.8546 46.559 19.2625 46.2334 18.8481C45.9078 18.404 45.5673 18.0932 45.2121 17.9156C44.8865 17.7379 44.7236 17.6491 44.7236 17.6491C44.7236 17.6491 45.3157 17.5899 46.4998 17.4715C47.7136 17.3235 48.8385 16.9979 49.8746 16.4946V19.8694C50.141 19.5437 50.5407 19.1293 51.0735 18.626C51.636 18.0932 52.3465 17.6047 53.205 17.1607C54.0634 16.7166 55.07 16.4946 56.2245 16.4946L56.8461 16.539C58.1783 16.687 59.2292 17.0127 59.9989 17.5159C60.7686 18.0192 61.257 18.5372 61.4642 19.0701C61.6123 19.3957 61.6863 19.7066 61.6863 20.0026C61.6863 20.6835 61.3754 21.2311 60.7538 21.6456C60.4577 21.7936 60.1617 21.8676 59.8657 21.8676C59.2144 21.8676 58.6667 21.5568 58.2227 20.9351C58.0451 20.3726 57.8675 19.6473 57.6898 18.7592C57.5122 17.8712 56.9054 17.3383 55.8692 17.1607H55.514C54.5963 17.1607 53.7378 17.4123 52.9385 17.9156C52.1392 18.3892 51.4732 18.9221 50.9403 19.5141C50.4074 20.1062 50.0522 20.5798 49.8746 20.9351V34.6118C49.9042 35.3519 50.0818 35.9439 50.4074 36.388C50.7331 36.8024 51.0587 37.1132 51.3844 37.3205C51.71 37.4981 51.8728 37.5869 51.8728 37.5869Z" fill="#DFBE7C"/>
<path d="M73.9809 37.5869C71.0797 37.5869 68.5931 36.5656 66.5208 34.523C64.4782 32.4507 63.4569 29.9641 63.4569 27.063C63.4569 24.1322 64.4782 21.6456 66.5208 19.6029C68.5931 17.5307 71.0797 16.4946 73.9809 16.4946C75.6386 16.4946 77.104 16.8498 78.3769 17.5603C79.0282 17.9156 79.6647 18.4336 80.2863 19.1145C80.9376 19.7954 81.2632 20.565 81.2632 21.4235C81.2632 22.4893 80.6416 23.1109 79.3982 23.2885C78.3917 23.2885 77.7701 22.6669 77.5332 21.4235C77.178 18.7889 75.9939 17.3679 73.9809 17.1607L73.5368 17.1163C71.7014 17.1163 70.1324 18.108 68.8299 20.0914C67.557 22.0748 66.9205 24.3839 66.9205 27.0185C66.9205 29.7716 67.6014 32.0955 68.9631 33.9901C70.3249 35.8551 71.9974 36.8764 73.9809 37.054H74.3361C75.4906 37.054 76.6303 36.7728 77.7553 36.2103C78.9098 35.6183 79.9015 34.7746 80.7304 33.6793L81.13 34.1233C80.1235 35.2186 79.1762 36.0179 78.2881 36.5212C77.4296 37.0244 76.6303 37.3353 75.8903 37.4537C75.1502 37.5425 74.5137 37.5869 73.9809 37.5869Z" fill="#DFBE7C"/>
<path d="M99.8661 37.5869C99.3036 37.5869 98.7708 37.3797 98.2675 36.9652C97.7939 36.5212 97.5126 35.6775 97.4238 34.4341C96.7726 35.3222 95.9437 36.0771 94.9372 36.6988C93.9306 37.2909 92.6725 37.5869 91.1627 37.5869C90.7187 37.5869 90.2598 37.5573 89.7862 37.4981C88.01 37.2317 86.5891 36.5952 85.5233 35.5887C84.4576 34.5526 83.9248 33.3832 83.9248 32.0807C83.9248 31.7847 83.9544 31.4886 84.0136 31.1926C84.3984 29.742 85.1089 28.6911 86.145 28.0399C87.2107 27.359 88.38 26.9001 89.653 26.6633C91.222 26.4561 93.0129 25.9824 95.026 25.2424C96.5653 24.4135 97.3646 23.5698 97.4238 22.7113L97.4682 22.0896C97.4682 21.4679 97.3646 20.7723 97.1574 20.0026C96.9798 19.2033 96.5653 18.5224 95.9141 17.96C95.2924 17.3975 94.3451 17.0867 93.0722 17.0275H92.9389C92.2581 17.0275 91.4884 17.2495 90.6299 17.6935C89.7714 18.108 89.1793 18.9369 88.8537 20.1802C88.7649 20.6243 88.7205 21.0239 88.7205 21.3791V22.4893C88.5133 23.7326 87.8916 24.3543 86.8555 24.3543C86.3522 24.3543 85.9082 24.1766 85.5233 23.8214C85.1681 23.4366 84.9905 22.9925 84.9905 22.4893C84.9905 21.8972 85.0793 21.3939 85.2569 20.9795C85.4345 20.5354 85.6565 20.121 85.923 19.7362C86.8407 18.5224 88.0248 17.6787 89.4754 17.2051C90.9259 16.7314 92.1248 16.4946 93.0722 16.4946C95.3812 16.5834 97.0686 17.1015 98.1343 18.0488C99.2 18.9961 99.8661 20.0914 100.133 21.3347C100.429 22.5781 100.577 23.629 100.577 24.4875V32.0363C100.577 32.0363 100.577 32.4211 100.577 33.1908C100.606 33.9309 100.665 34.5822 100.754 35.1446C101.05 36.0623 101.568 36.5212 102.308 36.5212C102.308 36.5212 102.086 36.6988 101.642 37.054C101.228 37.4093 100.636 37.5869 99.8661 37.5869ZM92.0064 36.832C93.1314 36.832 94.1527 36.5212 95.0704 35.8995C96.0177 35.2482 96.8022 34.449 97.4238 33.5016V24.0434C96.4469 25.1979 95.2332 25.9676 93.7826 26.3525C92.3617 26.7373 91.0443 27.211 89.8306 27.7734C88.6169 28.3359 87.862 29.4608 87.566 31.1482L87.5215 31.8143C87.5215 32.3767 87.6252 33.0428 87.8324 33.8125C88.0396 34.5526 88.4244 35.2186 88.9869 35.8107C89.579 36.3732 90.4227 36.7136 91.518 36.832H92.0064Z" fill="#DFBE7C"/>
<path d="M121.629 37.5869V34.2121C121.629 34.2121 121.363 34.4934 120.83 35.0558C120.297 35.6183 119.512 36.1807 118.476 36.7432C117.44 37.3057 116.152 37.5869 114.613 37.5869C111.712 37.5869 109.225 36.5656 107.153 34.523C105.11 32.4507 104.089 29.9641 104.089 27.063C104.089 24.1322 105.11 21.6456 107.153 19.6029C109.225 17.5307 111.712 16.4946 114.613 16.4946C117.633 16.4946 119.971 17.5899 121.629 19.7806V3.08435C122.695 3.5876 123.82 3.89844 125.004 4.01685C126.217 4.13526 126.824 4.19447 126.824 4.19447C126.824 4.19447 126.661 4.29808 126.336 4.5053C126.01 4.68292 125.67 4.99376 125.315 5.43781C124.989 5.85225 124.826 6.42951 124.826 7.16959V33.324C124.826 34.0641 124.989 34.6562 125.315 35.1002C125.67 35.5147 126.01 35.8107 126.336 35.9883C126.661 36.1659 126.824 36.2547 126.824 36.2547H126.691C125.211 36.2547 123.997 36.4768 123.05 36.9208C122.103 37.3649 121.629 37.5869 121.629 37.5869ZM115.057 36.9652C116.271 36.9652 117.455 36.6396 118.609 35.9883C119.794 35.337 120.8 34.3749 121.629 33.102V20.8463C120.83 19.5733 119.838 18.6408 118.654 18.0488C117.47 17.4567 116.286 17.1607 115.101 17.1607H114.613C112.452 17.3679 110.735 18.3892 109.462 20.2246C108.189 22.0304 107.553 24.295 107.553 27.0185C107.553 29.7716 108.234 32.0807 109.595 33.9457C110.957 35.7811 112.63 36.7876 114.613 36.9652H115.057Z" fill="#DFBE7C"/>
<path d="M131.831 13.7859C131.298 13.7859 130.84 13.6083 130.455 13.2531C130.1 12.8682 129.922 12.4242 129.922 11.9209C129.922 11.3881 130.1 10.944 130.455 10.5888C130.84 10.2335 131.298 10.0559 131.831 10.0559C132.335 10.0559 132.764 10.2335 133.119 10.5888C133.504 10.944 133.696 11.3881 133.696 11.9209C133.696 12.4242 133.504 12.8682 133.119 13.2531C132.764 13.6083 132.335 13.7859 131.831 13.7859ZM135.783 37.5869H128.59C128.59 37.5869 128.753 37.4981 129.078 37.3205C129.404 37.1132 129.729 36.8024 130.055 36.388C130.381 35.9439 130.558 35.3519 130.588 34.6118V20.6243C130.588 19.8546 130.41 19.2625 130.055 18.8481C129.729 18.404 129.404 18.0932 129.078 17.9156C128.753 17.7379 128.59 17.6491 128.59 17.6491C128.59 17.6491 129.182 17.5899 130.366 17.4715C131.58 17.3235 132.719 16.9979 133.785 16.4946V34.6118C133.785 35.3519 133.948 35.9439 134.274 36.388C134.599 36.8024 134.925 37.1132 135.25 37.3205C135.606 37.4981 135.783 37.5869 135.783 37.5869Z" fill="#DFBE7C"/>
<path d="M153.507 37.5869C152.945 37.5869 152.412 37.3797 151.909 36.9652C151.435 36.5212 151.154 35.6775 151.065 34.4341C150.414 35.3222 149.585 36.0771 148.579 36.6988C147.572 37.2909 146.314 37.5869 144.804 37.5869C144.36 37.5869 143.901 37.5573 143.428 37.4981C141.651 37.2317 140.23 36.5952 139.165 35.5887C138.099 34.5526 137.566 33.3832 137.566 32.0807C137.566 31.7847 137.596 31.4886 137.655 31.1926C138.04 29.742 138.75 28.6911 139.786 28.0399C140.852 27.359 142.021 26.9001 143.294 26.6633C144.863 26.4561 146.654 25.9824 148.667 25.2424C150.207 24.4135 151.006 23.5698 151.065 22.7113L151.11 22.0896C151.11 21.4679 151.006 20.7723 150.799 20.0026C150.621 19.2033 150.207 18.5224 149.555 17.96C148.934 17.3975 147.986 17.0867 146.714 17.0275H146.58C145.899 17.0275 145.13 17.2495 144.271 17.6935C143.413 18.108 142.821 18.9369 142.495 20.1802C142.406 20.6243 142.362 21.0239 142.362 21.3791V22.4893C142.155 23.7326 141.533 24.3543 140.497 24.3543C139.994 24.3543 139.55 24.1766 139.165 23.8214C138.809 23.4366 138.632 22.9925 138.632 22.4893C138.632 21.8972 138.721 21.3939 138.898 20.9795C139.076 20.5354 139.298 20.121 139.564 19.7362C140.482 18.5224 141.666 17.6787 143.117 17.2051C144.567 16.7314 145.766 16.4946 146.714 16.4946C149.023 16.5834 150.71 17.1015 151.776 18.0488C152.841 18.9961 153.507 20.0914 153.774 21.3347C154.07 22.5781 154.218 23.629 154.218 24.4875V32.0363C154.218 32.0363 154.218 32.4211 154.218 33.1908C154.248 33.9309 154.307 34.5822 154.396 35.1446C154.692 36.0623 155.21 36.5212 155.95 36.5212C155.95 36.5212 155.728 36.6988 155.284 37.054C154.869 37.4093 154.277 37.5869 153.507 37.5869ZM145.648 36.832C146.773 36.832 147.794 36.5212 148.712 35.8995C149.659 35.2482 150.444 34.449 151.065 33.5016V24.0434C150.088 25.1979 148.875 25.9676 147.424 26.3525C146.003 26.7373 144.686 27.211 143.472 27.7734C142.258 28.3359 141.503 29.4608 141.207 31.1482L141.163 31.8143C141.163 32.3767 141.267 33.0428 141.474 33.8125C141.681 34.5526 142.066 35.2186 142.628 35.8107C143.22 36.3732 144.064 36.7136 145.159 36.832H145.648Z" fill="#DFBE7C"/>
<path d="M51.8728 37.5869H44.7236C44.7236 37.5869 44.8865 37.4981 45.2121 37.3205C45.5673 37.1132 45.9078 36.8024 46.2334 36.388C46.559 35.9439 46.7218 35.3519 46.7218 34.6118V20.6243C46.7218 19.8546 46.559 19.2625 46.2334 18.8481C45.9078 18.404 45.5673 18.0932 45.2121 17.9156C44.8865 17.7379 44.7236 17.6491 44.7236 17.6491C44.7236 17.6491 45.3157 17.5899 46.4998 17.4715C47.7136 17.3235 48.8385 16.9979 49.8746 16.4946V19.8694C50.141 19.5437 50.5407 19.1293 51.0735 18.626C51.636 18.0932 52.3465 17.6047 53.205 17.1607C54.0634 16.7166 55.07 16.4946 56.2245 16.4946L56.8461 16.539C58.1783 16.687 59.2292 17.0127 59.9989 17.5159C60.7686 18.0192 61.257 18.5372 61.4642 19.0701C61.6123 19.3957 61.6863 19.7066 61.6863 20.0026C61.6863 20.6835 61.3754 21.2311 60.7538 21.6456C60.4577 21.7936 60.1617 21.8676 59.8657 21.8676C59.2144 21.8676 58.6667 21.5568 58.2227 20.9351C58.0451 20.3726 57.8675 19.6473 57.6898 18.7592C57.5122 17.8712 56.9054 17.3383 55.8692 17.1607H55.514C54.5963 17.1607 53.7378 17.4123 52.9385 17.9156C52.1392 18.3892 51.4732 18.9221 50.9403 19.5141C50.4074 20.1062 50.0522 20.5798 49.8746 20.9351V34.6118C49.9042 35.3519 50.0818 35.9439 50.4074 36.388C50.7331 36.8024 51.0587 37.1132 51.3844 37.3205C51.71 37.4981 51.8728 37.5869 51.8728 37.5869Z" stroke="#DFBE7C"/>
<path d="M73.9809 37.5869C71.0797 37.5869 68.5931 36.5656 66.5208 34.523C64.4782 32.4507 63.4569 29.9641 63.4569 27.063C63.4569 24.1322 64.4782 21.6456 66.5208 19.6029C68.5931 17.5307 71.0797 16.4946 73.9809 16.4946C75.6386 16.4946 77.104 16.8498 78.3769 17.5603C79.0282 17.9156 79.6647 18.4336 80.2863 19.1145C80.9376 19.7954 81.2632 20.565 81.2632 21.4235C81.2632 22.4893 80.6416 23.1109 79.3982 23.2885C78.3917 23.2885 77.7701 22.6669 77.5332 21.4235C77.178 18.7889 75.9939 17.3679 73.9809 17.1607L73.5368 17.1163C71.7014 17.1163 70.1324 18.108 68.8299 20.0914C67.557 22.0748 66.9205 24.3839 66.9205 27.0185C66.9205 29.7716 67.6014 32.0955 68.9631 33.9901C70.3249 35.8551 71.9974 36.8764 73.9809 37.054H74.3361C75.4906 37.054 76.6303 36.7728 77.7553 36.2103C78.9098 35.6183 79.9015 34.7746 80.7304 33.6793L81.13 34.1233C80.1235 35.2186 79.1762 36.0179 78.2881 36.5212C77.4296 37.0244 76.6303 37.3353 75.8903 37.4537C75.1502 37.5425 74.5137 37.5869 73.9809 37.5869Z" stroke="#DFBE7C"/>
<path d="M99.8661 37.5869C99.3036 37.5869 98.7708 37.3797 98.2675 36.9652C97.7939 36.5212 97.5126 35.6775 97.4238 34.4341C96.7726 35.3222 95.9437 36.0771 94.9372 36.6988C93.9306 37.2909 92.6725 37.5869 91.1627 37.5869C90.7187 37.5869 90.2598 37.5573 89.7862 37.4981C88.01 37.2317 86.5891 36.5952 85.5233 35.5887C84.4576 34.5526 83.9248 33.3832 83.9248 32.0807C83.9248 31.7847 83.9544 31.4886 84.0136 31.1926C84.3984 29.742 85.1089 28.6911 86.145 28.0399C87.2107 27.359 88.38 26.9001 89.653 26.6633C91.222 26.4561 93.0129 25.9824 95.026 25.2424C96.5653 24.4135 97.3646 23.5698 97.4238 22.7113L97.4682 22.0896C97.4682 21.4679 97.3646 20.7723 97.1574 20.0026C96.9798 19.2033 96.5653 18.5224 95.9141 17.96C95.2924 17.3975 94.3451 17.0867 93.0722 17.0275H92.9389C92.2581 17.0275 91.4884 17.2495 90.6299 17.6935C89.7714 18.108 89.1793 18.9369 88.8537 20.1802C88.7649 20.6243 88.7205 21.0239 88.7205 21.3791V22.4893C88.5133 23.7326 87.8916 24.3543 86.8555 24.3543C86.3522 24.3543 85.9082 24.1766 85.5233 23.8214C85.1681 23.4366 84.9905 22.9925 84.9905 22.4893C84.9905 21.8972 85.0793 21.3939 85.2569 20.9795C85.4345 20.5354 85.6565 20.121 85.923 19.7362C86.8407 18.5224 88.0248 17.6787 89.4754 17.2051C90.9259 16.7314 92.1248 16.4946 93.0722 16.4946C95.3812 16.5834 97.0686 17.1015 98.1343 18.0488C99.2 18.9961 99.8661 20.0914 100.133 21.3347C100.429 22.5781 100.577 23.629 100.577 24.4875V32.0363C100.577 32.0363 100.577 32.4211 100.577 33.1908C100.606 33.9309 100.665 34.5822 100.754 35.1446C101.05 36.0623 101.568 36.5212 102.308 36.5212C102.308 36.5212 102.086 36.6988 101.642 37.054C101.228 37.4093 100.636 37.5869 99.8661 37.5869ZM92.0064 36.832C93.1314 36.832 94.1527 36.5212 95.0704 35.8995C96.0177 35.2482 96.8022 34.449 97.4238 33.5016V24.0434C96.4469 25.1979 95.2332 25.9676 93.7826 26.3525C92.3617 26.7373 91.0443 27.211 89.8306 27.7734C88.6169 28.3359 87.862 29.4608 87.566 31.1482L87.5215 31.8143C87.5215 32.3767 87.6252 33.0428 87.8324 33.8125C88.0396 34.5526 88.4244 35.2186 88.9869 35.8107C89.579 36.3732 90.4227 36.7136 91.518 36.832H92.0064Z" stroke="#DFBE7C"/>
<path d="M121.629 37.5869V34.2121C121.629 34.2121 121.363 34.4934 120.83 35.0558C120.297 35.6183 119.512 36.1807 118.476 36.7432C117.44 37.3057 116.152 37.5869 114.613 37.5869C111.712 37.5869 109.225 36.5656 107.153 34.523C105.11 32.4507 104.089 29.9641 104.089 27.063C104.089 24.1322 105.11 21.6456 107.153 19.6029C109.225 17.5307 111.712 16.4946 114.613 16.4946C117.633 16.4946 119.971 17.5899 121.629 19.7806V3.08435C122.695 3.5876 123.82 3.89844 125.004 4.01685C126.217 4.13526 126.824 4.19447 126.824 4.19447C126.824 4.19447 126.661 4.29808 126.336 4.5053C126.01 4.68292 125.67 4.99376 125.315 5.43781C124.989 5.85225 124.826 6.42951 124.826 7.16959V33.324C124.826 34.0641 124.989 34.6562 125.315 35.1002C125.67 35.5147 126.01 35.8107 126.336 35.9883C126.661 36.1659 126.824 36.2547 126.824 36.2547H126.691C125.211 36.2547 123.997 36.4768 123.05 36.9208C122.103 37.3649 121.629 37.5869 121.629 37.5869ZM115.057 36.9652C116.271 36.9652 117.455 36.6396 118.609 35.9883C119.794 35.337 120.8 34.3749 121.629 33.102V20.8463C120.83 19.5733 119.838 18.6408 118.654 18.0488C117.47 17.4567 116.286 17.1607 115.101 17.1607H114.613C112.452 17.3679 110.735 18.3892 109.462 20.2246C108.189 22.0304 107.553 24.295 107.553 27.0185C107.553 29.7716 108.234 32.0807 109.595 33.9457C110.957 35.7811 112.63 36.7876 114.613 36.9652H115.057Z" stroke="#DFBE7C"/>
<path d="M131.831 13.7859C131.298 13.7859 130.84 13.6083 130.455 13.2531C130.1 12.8682 129.922 12.4242 129.922 11.9209C129.922 11.3881 130.1 10.944 130.455 10.5888C130.84 10.2335 131.298 10.0559 131.831 10.0559C132.335 10.0559 132.764 10.2335 133.119 10.5888C133.504 10.944 133.696 11.3881 133.696 11.9209C133.696 12.4242 133.504 12.8682 133.119 13.2531C132.764 13.6083 132.335 13.7859 131.831 13.7859ZM135.783 37.5869H128.59C128.59 37.5869 128.753 37.4981 129.078 37.3205C129.404 37.1132 129.729 36.8024 130.055 36.388C130.381 35.9439 130.558 35.3519 130.588 34.6118V20.6243C130.588 19.8546 130.41 19.2625 130.055 18.8481C129.729 18.404 129.404 18.0932 129.078 17.9156C128.753 17.7379 128.59 17.6491 128.59 17.6491C128.59 17.6491 129.182 17.5899 130.366 17.4715C131.58 17.3235 132.719 16.9979 133.785 16.4946V34.6118C133.785 35.3519 133.948 35.9439 134.274 36.388C134.599 36.8024 134.925 37.1132 135.25 37.3205C135.606 37.4981 135.783 37.5869 135.783 37.5869Z" stroke="#DFBE7C"/>
<path d="M153.507 37.5869C152.945 37.5869 152.412 37.3797 151.909 36.9652C151.435 36.5212 151.154 35.6775 151.065 34.4341C150.414 35.3222 149.585 36.0771 148.579 36.6988C147.572 37.2909 146.314 37.5869 144.804 37.5869C144.36 37.5869 143.901 37.5573 143.428 37.4981C141.651 37.2317 140.23 36.5952 139.165 35.5887C138.099 34.5526 137.566 33.3832 137.566 32.0807C137.566 31.7847 137.596 31.4886 137.655 31.1926C138.04 29.742 138.75 28.6911 139.786 28.0399C140.852 27.359 142.021 26.9001 143.294 26.6633C144.863 26.4561 146.654 25.9824 148.667 25.2424C150.207 24.4135 151.006 23.5698 151.065 22.7113L151.11 22.0896C151.11 21.4679 151.006 20.7723 150.799 20.0026C150.621 19.2033 150.207 18.5224 149.555 17.96C148.934 17.3975 147.986 17.0867 146.714 17.0275H146.58C145.899 17.0275 145.13 17.2495 144.271 17.6935C143.413 18.108 142.821 18.9369 142.495 20.1802C142.406 20.6243 142.362 21.0239 142.362 21.3791V22.4893C142.155 23.7326 141.533 24.3543 140.497 24.3543C139.994 24.3543 139.55 24.1766 139.165 23.8214C138.809 23.4366 138.632 22.9925 138.632 22.4893C138.632 21.8972 138.721 21.3939 138.898 20.9795C139.076 20.5354 139.298 20.121 139.564 19.7362C140.482 18.5224 141.666 17.6787 143.117 17.2051C144.567 16.7314 145.766 16.4946 146.714 16.4946C149.023 16.5834 150.71 17.1015 151.776 18.0488C152.841 18.9961 153.507 20.0914 153.774 21.3347C154.07 22.5781 154.218 23.629 154.218 24.4875V32.0363C154.218 32.0363 154.218 32.4211 154.218 33.1908C154.248 33.9309 154.307 34.5822 154.396 35.1446C154.692 36.0623 155.21 36.5212 155.95 36.5212C155.95 36.5212 155.728 36.6988 155.284 37.054C154.869 37.4093 154.277 37.5869 153.507 37.5869ZM145.648 36.832C146.773 36.832 147.794 36.5212 148.712 35.8995C149.659 35.2482 150.444 34.449 151.065 33.5016V24.0434C150.088 25.1979 148.875 25.9676 147.424 26.3525C146.003 26.7373 144.686 27.211 143.472 27.7734C142.258 28.3359 141.503 29.4608 141.207 31.1482L141.163 31.8143C141.163 32.3767 141.267 33.0428 141.474 33.8125C141.681 34.5526 142.066 35.2186 142.628 35.8107C143.22 36.3732 144.064 36.7136 145.159 36.832H145.648Z" stroke="#DFBE7C"/>
<defs>
<linearGradient id="paint0_linear_385_109" x1="14.8062" y1="26.7428" x2="20.0721" y2="32.8627" gradientUnits="userSpaceOnUse">
<stop stop-color="#A98438"/>
<stop offset="1" stop-color="#ECC57A"/>
</linearGradient>
<linearGradient id="paint1_linear_385_109" x1="14.5215" y1="18.7728" x2="2.56637" y2="37.844" gradientUnits="userSpaceOnUse">
<stop stop-color="#B18A3A"/>
<stop offset="1" stop-color="#FCDC9F"/>
</linearGradient>
<linearGradient id="paint2_linear_385_109" x1="26.9036" y1="23.8963" x2="20.0721" y2="29.1623" gradientUnits="userSpaceOnUse">
<stop stop-color="#B18A3A"/>
<stop offset="1" stop-color="#FADA9D"/>
</linearGradient>
<linearGradient id="paint3_linear_385_109" x1="16.6563" y1="1.69393" x2="40.1397" y2="38.271" gradientUnits="userSpaceOnUse">
<stop stop-color="#D3B16E"/>
<stop offset="1" stop-color="#FFE0A4"/>
</linearGradient>
</defs>
</svg>
