<svg xmlns="http://www.w3.org/2000/svg" version="1.1" xmlns:xlink="http://www.w3.org/1999/xlink" xmlns:svgjs="http://svgjs.dev/svgjs" width="1000" height="623" viewBox="0 0 1000 623"><g transform="matrix(1,0,0,1,-0.6060606060606233,0.2522267206477409)"><svg viewBox="0 0 396 247" data-background-color="#f8f8f8" preserveAspectRatio="xMidYMid meet" height="623" width="1000" xmlns="http://www.w3.org/2000/svg" xmlns:xlink="http://www.w3.org/1999/xlink"><g id="tight-bounds" transform="matrix(1,0,0,1,0.2400000000000091,-0.09999999999999432)"><svg viewBox="0 0 395.52 247.2" height="247.2" width="395.52"><g><svg></svg></g><g><svg viewBox="0 0 395.52 247.2" height="247.2" width="395.52"><g transform="matrix(1,0,0,1,75.54432,109.93192200915776)"><svg viewBox="0 0 244.43135999999998 27.336155981684474" height="27.336155981684474" width="244.43135999999998"><g><svg viewBox="0 0 244.43135999999998 27.336155981684474" height="27.336155981684474" width="244.43135999999998"><g><svg viewBox="0 0 244.43135999999998 27.336155981684474" height="27.336155981684474" width="244.43135999999998"><g><svg viewBox="0 0 244.43135999999998 27.336155981684474" height="27.336155981684474" width="244.43135999999998"><g id="textblocktransform"><svg viewBox="0 0 244.43135999999998 27.336155981684474" height="27.336155981684474" width="244.43135999999998" id="textblock"><g><svg viewBox="0 0 244.43135999999998 27.336155981684474" height="27.336155981684474" width="244.43135999999998"><g transform="matrix(1,0,0,1,0,0)"><svg width="244.43135999999998" viewBox="1 -39.6 360.33 40.300000000000004" height="27.336155981684474" data-palette-color="#ffffff"><path d="M1 0L1-8.2 3.5-8.2 3.5-30.65 1-30.65 1-38.9 21.3-38.9Q29.65-38.9 34.58-34.33 39.5-29.75 39.5-19.45L39.5-19.45Q39.5-9.15 34.58-4.58 29.65 0 21.3 0L21.3 0 1 0ZM17.5-8.2L20.4-8.2Q22.1-8.2 22.95-9.1 23.8-10 23.8-11.9L23.8-11.9 23.8-27Q23.8-30.7 20.4-30.7L20.4-30.7 17.5-30.7 17.5-8.2ZM74.95 0L41.2 0 41.2-8.2 43.7-8.2 43.7-30.7 41.2-30.7 41.2-38.9 74.95-38.9 74.95-23.8 63.75-23.8 63.75-30.7 57.7-30.7 57.7-22.8 62.1-22.8 62.1-17.1 57.7-17.1 57.7-8.2 63.75-8.2 63.75-16.1 74.95-16.1 74.95 0ZM110.59 0L76.84 0 76.84-8.2 79.34-8.2 79.34-30.7 76.84-30.7 76.84-38.9 110.59-38.9 110.59-23.8 99.39-23.8 99.39-30.7 93.34-30.7 93.34-22.8 97.75-22.8 97.75-17.1 93.34-17.1 93.34-8.2 99.39-8.2 99.39-16.1 110.59-16.1 110.59 0ZM146.49 0L127.49 0 127.49-8.2 129.99-8.2 129.99-30.7 127.49-30.7 127.49-38.9 146.49-38.9 146.49-30.7 143.99-30.7 143.99-8.2 146.49-8.2 146.49 0ZM177.29-30.7L177.29-38.9 193.69-38.9 193.69-30.7 191.19-30.7 191.19 0 177.14 0 162.49-22.55 162.49-8.2 164.89-8.2 164.89 0 148.49 0 148.49-8.2 150.99-8.2 150.99-30.7 148.49-30.7 148.49-38.9 166.54-38.9 179.69-18.85 179.69-30.7 177.29-30.7ZM247.88-38.9L247.88-26.8 239.28-26.8 239.28-30.7 236.08-30.7 236.08-8.2 239.58-8.2 239.58 0 218.58 0 218.58-8.2 222.08-8.2 222.08-30.7 218.88-30.7 218.88-26.8 210.28-26.8 210.28-38.9 247.88-38.9ZM283.33 0L249.58 0 249.58-8.2 252.08-8.2 252.08-30.7 249.58-30.7 249.58-38.9 283.33-38.9 283.33-23.8 272.13-23.8 272.13-30.7 266.08-30.7 266.08-22.8 270.48-22.8 270.48-17.1 266.08-17.1 266.08-8.2 272.13-8.2 272.13-16.1 283.33-16.1 283.33 0ZM304.63 0.7Q295.18 0.7 290.05-4.1 284.93-8.9 284.93-19.45L284.93-19.45Q284.93-39.6 304.53-39.6L304.53-39.6Q309.28-39.6 313.35-38.45 317.43-37.3 319.43-35.9L319.43-35.9 319.43-23.4 307.43-23.4 307.43-27Q307.43-28.9 306.58-29.8 305.73-30.7 304.03-30.7L304.03-30.7Q302.33-30.7 301.48-29.8 300.63-28.9 300.63-27L300.63-27 300.63-11.9Q300.63-10 301.48-9.1 302.33-8.2 304.03-8.2L304.03-8.2Q305.73-8.2 306.58-9.1 307.43-10 307.43-11.9L307.43-11.9 307.43-15.95 319.43-15.95 319.43-3Q317.38-1.6 313.35-0.45 309.33 0.7 304.63 0.7L304.63 0.7ZM361.33-38.9L361.33-30.7 358.83-30.7 358.83-8.2 361.33-8.2 361.33 0 342.43 0 342.43-8.2 344.83-8.2 344.83-16.45 337.83-16.45 337.83-8.2 340.23-8.2 340.23 0 321.33 0 321.33-8.2 323.83-8.2 323.83-30.7 321.33-30.7 321.33-38.9 340.23-38.9 340.23-30.7 337.83-30.7 337.83-23.1 344.83-23.1 344.83-30.7 342.43-30.7 342.43-38.9 361.33-38.9Z" opacity="1" transform="matrix(1,0,0,1,0,0)" fill="#ffffff" class="wordmark-text-0" data-fill-palette-color="primary" id="text-0"></path></svg></g></svg></g></svg></g></svg></g></svg></g></svg></g></svg></g><path d="M173.633 103.932L173.633 39.318 5.069 39.318 5.069 207.882 173.633 207.882 173.633 143.268 171.167 143.268 171.167 205.417 7.534 205.417 7.534 41.783 171.167 41.783 171.167 103.932Z" fill="#ffffff" stroke="transparent" data-fill-palette-color="primary"></path></svg></g><defs></defs></svg><rect width="395.52" height="247.2" fill="none" stroke="none" visibility="hidden"></rect></g></svg></g></svg>