<svg xmlns="http://www.w3.org/2000/svg" version="1.1" xmlns:xlink="http://www.w3.org/1999/xlink" xmlns:svgjs="http://svgjs.dev/svgjs" width="1000" height="106" viewBox="0 0 1000 106"><g transform="matrix(1,0,0,1,-0.6060606060606233,0.24340534880442988)"><svg viewBox="0 0 396 42" data-background-color="#ffffff" preserveAspectRatio="xMidYMid meet" height="106" width="1000" xmlns="http://www.w3.org/2000/svg" xmlns:xlink="http://www.w3.org/1999/xlink"><g id="tight-bounds" transform="matrix(1,0,0,1,0.2400000000000091,-0.09644284933770564)"><svg viewBox="0 0 395.52 42.192886478109266" height="42.192886478109266" width="395.52"><g><svg viewBox="0 0 395.52 42.192886478109266" height="42.192886478109266" width="395.52"><g><svg viewBox="0 0 395.52 42.192886478109266" height="42.192886478109266" width="395.52"><g id="textblocktransform"><svg viewBox="0 0 395.52 42.192886478109266" height="42.192886478109266" width="395.52" id="textblock"><g><svg viewBox="0 0 395.52 42.192886478109266" height="42.192886478109266" width="395.52"><g transform="matrix(1,0,0,1,0,0)"><svg width="395.52" viewBox="2.299999952316284 -40.29999923706055 387.1200256347656 41.29999923706055" height="42.192886478109266" data-palette-color="#ffffff"><path d="M23.65-39.75Q28.9-39.75 32.93-37.27 36.95-34.8 39.18-30.4 41.4-26 41.4-20.45L41.4-20.45Q41.4-14.75 38.02-9.93 34.65-5.1 29.65-2.27 24.65 0.55 20.1 0.55L20.1 0.55Q17.7 0.55 15.45 0.3L15.45 0.3Q11.55 0.05 9.55 0.05L9.55 0.05 2.9 0.05 2.9-1.75 7.6-5.45 7.6-35.35 2.3-37.05 3.45-39.3 9.5-39.3Q14.2-39.3 18.7-39.6L18.7-39.6Q22.1-39.8 23.65-39.8L23.65-39.8 23.65-39.75ZM21.5-3.4Q25-3.4 27.85-5.3 30.7-7.2 32.35-10.58 34-13.95 34-18.15L34-18.15Q34-23.2 32.45-27.33 30.9-31.45 27.7-33.9 24.5-36.35 19.75-36.35L19.75-36.35Q16.8-36.35 14.4-34.65L14.4-34.65 14.4-4.55Q17.45-3.35 21.5-3.35L21.5-3.35 21.5-3.4ZM80.85 0.95L77.95 0.05 47.65 0.05 47.65-1.75 52.35-5.45 52.35-35.3 47.05-37.05 48.2-39.3 77.45-39.3 80.35-40.2 80.35-28.45 78.6-27.85 72.6-36.75 59.15-36.75 59.15-21.35 66.6-21.35 70.25-27.6 72.05-27.6 72.05-12.55 69.8-11.4 66.65-18.8 59.15-18.8 59.15-2.55 72.35-2.55 79.1-12.5 80.85-11.85 80.85 0.95ZM121.59 0.95L118.7 0.05 88.4 0.05 88.4-1.75 93.09-5.45 93.09-35.3 87.8-37.05 88.95-39.3 118.2-39.3 121.09-40.2 121.09-28.45 119.34-27.85 113.34-36.75 99.9-36.75 99.9-21.35 107.34-21.35 111-27.6 112.8-27.6 112.8-12.55 110.55-11.4 107.4-18.8 99.9-18.8 99.9-2.55 113.09-2.55 119.84-12.5 121.59-11.85 121.59 0.95ZM159.89-2.3L158.79-0.05 143.09-0.05 143.09-1.85 147.79-5.55 147.79-35.35 142.49-37.05 143.64-39.3 159.34-39.3 159.34-37.5 154.59-33.75 154.59-4 159.89-2.3ZM204.34-37.5L199.59-33.75 199.59 0 196.54 0 172.84-29.35 172.84-4.85 178.44-2.25 177.34 0 165.09 0 165.09-1.8 169.79-5.5 169.79-34.2 164.49-37.05 165.64-39.3 173.44-39.3 196.54-10.65 196.54-34.45 190.94-37.05 192.09-39.3 204.34-39.3 204.34-37.5ZM258.58-40.2L258.58-27.45 256.83-26.85 250.08-36.75 244.28-36.75 244.28-3.95 249.58-2.25 248.48 0 232.78 0 232.78-1.8 237.48-5.5 237.48-36.75 231.83-36.75 225.08-26.85 223.33-27.45 223.33-40.2 226.23-39.3 255.68-39.3 258.58-40.2ZM297.93 0.95L295.03 0.05 264.73 0.05 264.73-1.75 269.43-5.45 269.43-35.3 264.13-37.05 265.28-39.3 294.53-39.3 297.43-40.2 297.43-28.45 295.68-27.85 289.68-36.75 276.23-36.75 276.23-21.35 283.68-21.35 287.33-27.6 289.13-27.6 289.13-12.55 286.88-11.4 283.73-18.8 276.23-18.8 276.23-2.55 289.43-2.55 296.18-12.5 297.93-11.85 297.93 0.95ZM327.73-40.3Q330.43-40.3 333.98-39.55 337.53-38.8 339.18-37.95L339.18-37.95 339.18-28.05 336.68-28.05Q332.23-35.8 324.83-35.8L324.83-35.8Q321.63-35.8 319-33.9 316.38-32 314.85-28.65 313.33-25.3 313.33-21.15L313.33-21.15Q313.33-16.35 314.8-12.4 316.28-8.45 319.33-6.08 322.38-3.7 326.88-3.7L326.88-3.7Q331.23-3.7 339.23-9.8L339.23-9.8 340.83-7.25 331.63-0.1Q329.73 0.55 327.93 0.78 326.13 1 324.08 1L324.08 1Q318.78 1 314.65-1.55 310.53-4.1 308.25-8.58 305.98-13.05 305.98-18.75L305.98-18.75Q305.98-24.6 309.43-29.58 312.88-34.55 317.98-37.43 323.08-40.3 327.73-40.3L327.73-40.3ZM389.42-2.3L388.32-0.05 372.62-0.05 372.62-1.85 377.32-5.55 377.32-18.35 358.12-18.35 358.12-4.05 363.42-2.3 362.32-0.05 346.62-0.05 346.62-1.85 351.32-5.55 351.32-35.35 346.02-37.05 347.17-39.3 362.87-39.3 362.87-37.5 358.12-33.75 358.12-20.85 377.32-20.85 377.32-35.35 372.02-37.05 373.17-39.3 388.88-39.3 388.88-37.5 384.13-33.75 384.13-4 389.42-2.3Z" opacity="1" transform="matrix(1,0,0,1,0,0)" fill="#ffffff" class="wordmark-text-0" data-fill-palette-color="primary" id="text-0"></path></svg></g></svg></g></svg></g></svg></g></svg></g><defs></defs></svg><rect width="395.52" height="42.192886478109266" fill="none" stroke="none" visibility="hidden"></rect></g></svg></g></svg>