<svg width="396" height="93" viewBox="0 0 396 93" fill="none" xmlns="http://www.w3.org/2000/svg">
<g clip-path="url(#clip0_248_2977)">
<path d="M55.9371 37.5918C55.9249 37.0284 56.4264 36.8996 56.7653 36.6362C56.9977 36.454 57.3377 36.3472 56.9695 35.9574C56.7224 35.6963 57.2876 35.5615 57.131 35.2252C56.2026 35.3891 55.794 36.5038 54.665 36.5499C55.2118 36.2124 55.4907 35.7692 55.8491 35.3988C55.9971 35.2458 56.1108 35.0698 55.8527 34.9022C55.5641 34.7152 55.5359 34.9362 55.4442 35.1305C55.2264 35.5931 54.8693 35.7704 54.3677 35.553L54.3335 35.5154C54.3555 35.3333 54.3653 35.1159 54.5476 35.0382C54.8766 34.8974 54.939 34.5792 54.9329 34.3376C54.9084 33.4269 55.5628 32.9291 56.013 32.2758C56.2552 31.9237 56.616 31.6213 56.7494 31.1028C56.8374 30.7616 57.2337 30.2553 57.5775 29.9153C58.4643 29.0398 59.1383 27.9154 60.2783 27.3326C62.3138 26.292 64.2024 24.9964 66.2733 24.0128C67.455 23.4518 68.6611 22.9249 69.7864 22.2424C70.1729 22.0081 70.7014 22.0081 71.1026 21.7895C72.2035 21.1909 73.3692 20.704 74.5594 20.3956C75.4817 20.1564 76.3245 19.7132 77.2713 19.5432C78.2144 19.3732 79.0572 18.7843 80.0235 18.6932C81.0792 18.5948 82.0247 18.0059 83.1134 18.08C83.7641 18.1237 84.2754 17.6295 84.9127 17.5724C85.8742 17.485 86.8246 17.326 87.8032 17.4292C88.5579 17.5093 89.3273 17.4486 90.0894 17.4717C90.7989 17.4935 91.4961 17.6101 92.126 17.9537C92.2692 18.0314 92.3707 18.0509 92.5175 18.0011C92.63 17.9634 92.778 17.9221 92.8734 17.9634C94.2814 18.5924 95.918 18.3678 97.2905 19.14C97.699 19.3695 98.1137 19.3027 98.4379 18.9069C98.6678 18.6264 98.8317 18.5827 99.047 18.9858C99.2843 19.4315 99.688 19.712 100.265 19.5286C100.499 19.4545 100.715 19.497 100.826 19.752C100.925 19.9852 101.075 20.0374 101.312 19.9414C101.577 19.8346 101.722 20.0301 101.752 20.2268C101.879 21.0707 102.311 21.6608 103.018 22.1623C103.555 22.5436 103.545 23.2648 103.624 23.8829C103.816 25.3837 103.356 26.7947 102.989 28.2141C102.892 28.5905 103.065 28.8905 103.109 29.2183C103.248 30.2395 104.061 31.0069 104.01 32.107C103.952 33.3601 104.117 34.6229 104.165 35.8821C104.188 36.4856 104.063 37.0939 103.951 37.6719C103.715 38.8886 103.864 40.183 103.244 41.328C103.095 41.6036 103.134 41.9194 103.135 42.2217C103.136 42.6928 103.031 43.1275 102.784 43.5392C102.651 43.7602 102.543 44.0139 102.498 44.2665C102.224 45.7892 101.349 47.0593 100.774 48.4532C100.264 49.6893 99.3528 50.6753 98.8709 51.9187C98.6446 52.5028 98.159 52.9909 97.7834 53.5166C97.1681 54.3788 96.3743 55.1085 95.8825 56.0641C95.6991 56.4211 95.4422 56.7126 95.1315 56.9833C94.5101 57.5261 94.0086 58.1806 93.5902 58.8897C93.386 59.2358 93.0214 59.4021 92.7279 59.628C91.9156 60.2533 91.3787 61.1361 90.5921 61.7796C90.3096 62.0115 90.2839 62.2702 90.6496 62.5373C90.9493 62.7559 91.249 62.9878 91.5927 63.0776C92.263 63.2525 92.8367 63.6544 93.3982 63.981C94.1529 64.4206 94.9333 64.8735 95.6795 65.3264C96.4391 65.7878 97.2024 66.2942 98.0281 66.6779C100.745 67.9395 103.202 69.6395 105.663 71.3139C106.57 71.9307 107.273 72.8523 108.028 73.672C109.014 74.7441 110.14 75.6609 111.205 76.6481C111.827 77.2261 112.39 77.8672 112.998 78.4998C112.549 78.6625 112.03 78.6783 112.068 79.3012L112.053 79.3158C111.764 79.2988 111.567 79.0341 111.262 79.0377C110.987 79.0414 110.805 79.147 110.68 79.3899C110.537 79.6704 110.785 79.7311 110.923 79.8561C111.013 79.9375 111.102 80.0201 111.195 80.0978C111.404 80.2714 111.329 80.4438 111.206 80.6272C111.055 80.8506 110.885 80.762 110.741 80.6454C110.204 80.2143 109.641 79.8343 109.002 79.555C108.762 79.4506 108.608 79.3911 108.425 79.6024C108.243 79.8136 108.425 79.9363 108.504 80.1184C108.799 80.802 109.356 81.3472 109.425 82.1681C109.458 82.5663 110.034 82.8031 110.358 83.12C110.471 83.2305 110.615 83.3095 110.745 83.403C110.721 83.426 110.697 83.4491 110.672 83.471C110.018 83.3653 109.465 83.0751 109.017 82.587C108.938 82.4996 108.762 82.366 108.731 82.3891C108.395 82.6356 108.091 82.7788 107.672 82.4971C107.581 82.4364 107.628 82.706 107.709 82.8056C108.083 83.267 108.636 83.4928 109.103 83.834C109.201 83.9057 109.313 83.9554 109.41 84.0271C109.499 84.0951 109.526 84.2092 109.481 84.3003C109.395 84.4751 109.284 84.344 109.185 84.3003C108.833 84.1449 108.479 83.9943 108.132 83.8328C107.948 83.7478 107.81 83.7855 107.729 83.9603C107.623 84.1934 107.817 84.2481 107.97 84.2724C108.583 84.3659 108.934 84.7241 109.088 85.302C109.114 85.3992 109.167 85.5012 109.06 85.5704C108.986 85.619 108.916 85.5704 108.846 85.5194C108.449 85.2316 107.958 85.1527 107.52 84.956C107.712 84.4339 107.288 84.3404 106.966 84.1898C106.856 84.1388 106.687 84.0016 106.605 84.2019C106.548 84.3428 106.551 84.5128 106.717 84.6354C106.91 84.7787 107.178 84.8018 107.327 85.0143C107.032 85.1321 106.821 85.211 106.417 85.0871C105.531 84.8163 104.664 84.4654 103.778 84.1959C102.812 83.902 101.743 84.0732 100.844 83.4309C100.199 82.9707 99.3712 82.7716 98.6678 82.3793C96.8318 81.3533 95.0287 80.2678 93.1939 79.2393C92.1138 78.6346 91.0105 78.0688 89.8949 77.5296C88.7071 76.9565 87.49 76.4441 86.295 75.888C85.9684 75.7362 85.6112 75.5759 85.3714 75.3234C84.9409 74.868 84.3904 74.7891 83.8351 74.6786C83.7886 74.6154 83.7042 74.5487 83.6589 74.6179C83.6027 74.7017 83.7287 74.7102 83.78 74.7466C83.7176 75.5298 83.5109 76.3275 84.0112 77.0573C84.0932 77.1763 84.0332 77.2941 83.9427 77.3839C83.7617 77.5636 83.8436 77.7409 83.9072 77.9413C84.2534 79.0292 84.4503 80.1476 84.547 81.2817C84.6167 82.0952 84.7329 82.2482 85.6308 82.3927C85.4656 82.6963 85.4228 83.0266 85.3409 83.3447C85.2503 83.6968 85.3103 83.9348 85.6026 84.1267C85.884 84.3112 85.9977 84.5286 85.7702 84.8321C85.698 84.9281 85.5928 85.0823 85.7127 85.1515C86.3463 85.5194 85.8277 85.7246 85.599 85.9347C85.0473 86.441 84.7843 87.0263 84.9702 87.7743C85.0473 88.0827 84.8418 88.3158 84.706 88.549C84.1702 89.4596 83.2235 89.9684 82.4492 90.6217C82.0455 90.9617 81.2969 91.0102 80.8064 91.3526C79.4975 92.267 77.9856 92.2306 76.5043 92.4188C75.5135 92.545 74.5288 92.5232 73.571 92.3605C72.7808 92.2269 71.9209 92.1541 71.2738 91.5457C71.0696 91.3527 70.8372 91.162 70.5803 91.0539C69.5344 90.6132 68.9069 89.6673 68.036 89.0176C67.8231 88.8586 67.7583 88.5817 67.669 88.3316C67.554 88.0098 67.4403 87.6796 67.2666 87.3869C67.0329 86.9935 67.0758 86.5697 66.9963 86.1714C66.858 85.4805 67.3877 85.0179 67.318 84.4072C67.2862 84.1339 67.5357 84.1837 67.7045 84.1412C68.2549 84.0016 68.3491 83.7648 67.9418 83.4236C67.6666 83.1929 67.6776 83.0921 67.9528 82.899C68.1901 82.7315 68.1889 82.4473 68.1852 82.179C68.1779 81.737 68.2354 81.2914 68.2403 80.8567C68.2525 79.5939 68.4837 78.3456 68.3479 77.0634C68.2672 76.3117 68.1644 75.5273 68.3895 74.7065C68.5424 74.1492 68.6268 73.4291 68.4262 72.7844C68.2439 72.1942 68.2097 71.575 68.31 70.986C68.4164 70.3571 68.3491 69.7548 68.2562 69.1501C68.2072 68.8308 68.1338 68.5151 68.1449 68.1921C68.162 67.6274 67.7485 67.4295 67.3326 67.2571C66.9339 67.092 66.699 67.3312 66.4862 67.6444C66.2758 67.9565 66.0788 68.0002 65.9137 67.5679C65.7449 67.1247 65.3963 66.9645 64.9278 67.1345C64.7113 67.2134 64.54 67.2024 64.4275 66.9584C64.381 66.8588 64.2342 66.7058 64.1804 66.7228C63.4281 66.9584 63.5235 66.3343 63.4404 65.9736C63.3315 65.4964 63.093 65.2074 62.644 64.9913C61.9725 64.6671 61.904 63.9701 61.8196 63.3375C61.5542 61.3413 61.6068 59.322 62.3395 57.4581C63.1235 55.4655 64.0092 53.4644 65.7021 51.9916C65.8525 51.8604 66.0311 51.7536 66.2097 51.6613C67.2323 51.1319 67.3828 50.7955 67.2348 49.6286C66.9657 47.5122 66.7186 45.3933 66.4813 43.2732C66.4348 42.858 66.4715 42.4524 66.644 42.0335C66.9889 41.1969 66.732 40.274 66.9131 39.4022C66.9608 39.1739 66.9534 38.942 67.2421 38.7441C66.5008 38.738 65.9186 38.9639 65.3155 39.0792C63.6043 39.4059 62.2135 40.4914 60.5609 40.931C60.4594 40.9577 60.3982 41.1216 60.2942 41.1629C60.0533 41.2588 59.7744 41.4033 59.7218 40.9492C59.6655 40.4647 59.4172 40.2437 58.7787 40.5266C59.0845 40.1975 59.2924 40.0069 59.4588 39.7859C59.6288 39.5601 59.6924 39.3136 59.4196 39.0914C59.1738 38.891 58.9683 38.8849 58.731 39.1229C58.6233 39.231 58.5034 39.5431 58.26 39.2529C58.079 39.0367 58.1402 38.857 58.3371 38.6785C58.7383 38.3155 59.1199 37.9318 59.5273 37.5772C59.6643 37.4582 59.7731 37.3635 59.6839 37.1789C59.6141 37.0332 59.4991 37.0271 59.3377 37.0186C58.8117 36.9907 58.2882 36.9191 57.7866 37.1534C57.7683 37.1619 57.7389 37.1838 57.7328 37.1789C56.9463 36.5074 56.5475 37.5189 55.9335 37.5869L55.9359 37.5893V37.5918H55.9371ZM77.2603 34.0182C77.3324 34.2319 77.5918 34.2757 77.593 34.5185C77.5954 35.1948 77.9746 35.7352 78.3049 36.2828C78.5789 36.7382 78.8284 37.2311 78.8957 37.729C78.9777 38.3325 79.1685 38.8959 79.292 39.4811C79.3593 39.8005 79.6835 39.9851 79.6688 40.3542C79.6223 41.549 79.7666 42.728 80.0015 43.8998C80.0884 44.3333 80.1104 44.7789 80.1556 45.2197C80.2816 46.4218 80.4027 47.6251 80.5287 48.8272C80.5544 49.0676 80.6706 49.3566 80.9299 49.1696C81.2981 48.9049 81.7837 48.8479 82.092 48.5637C82.9446 47.7745 84.1017 47.3531 84.8014 46.4024C85.1782 45.8912 85.9035 45.6835 86.0332 44.9635C86.054 44.8457 86.1971 44.7328 86.3084 44.6502C86.9787 44.156 87.5708 43.5671 87.9451 42.8385C88.1812 42.3796 88.6766 42.1148 88.8148 41.6583C88.9873 41.0888 89.3457 40.6237 89.5414 40.0773C89.8325 39.2626 90.1554 38.4563 90.4013 37.627C90.6998 36.6216 90.6863 35.5603 90.8784 34.5343C90.942 34.1967 90.8099 33.9296 90.4478 33.8495C90.2533 33.807 90.1126 33.7037 89.9879 33.5726C89.1744 32.7166 87.9965 32.566 86.9714 32.2114C86.443 32.0281 85.6051 32.0997 84.9555 32.3535C84.1519 32.668 83.2981 32.6182 82.4749 32.7238C80.6816 32.9533 78.9471 33.3443 77.2627 34.0182H77.2603ZM55.3096 34.7954C55.4931 34.3789 55.9592 34.3315 55.8576 33.9284C55.8148 33.7608 55.5922 33.7887 55.4356 33.8616C55.0405 34.0425 55.1922 34.3388 55.3096 34.7954Z" fill="#82A1ED"/>
<path d="M296.806 10.7701C297.119 10.1788 297.782 10.3002 298.273 10.0731C298.554 9.94319 299.11 10.078 298.723 9.4587C298.641 9.32757 298.83 9.22193 298.954 9.15271C299.11 9.06529 299.327 9.13572 299.459 8.95844C299.405 8.75444 299.222 8.84065 299.118 8.84915C298.364 8.91351 297.644 9.15393 296.964 9.44535C296.531 9.63113 296.154 9.74284 295.625 9.60684C296.362 9.27778 297.03 8.98272 297.693 8.67794C297.831 8.6148 298.03 8.58566 298.032 8.37924C298.033 8.25174 297.941 8.14003 297.814 8.12303C297.658 8.10239 297.502 8.1036 297.364 8.23353C296.906 8.6658 296.434 9.03129 295.751 8.62816C295.635 8.55895 295.433 8.62937 295.272 8.63666L295.235 8.59659C295.531 8.28695 295.972 8.22503 296.307 7.98582C296.687 7.71261 297.293 7.63247 297.219 6.95007C297.21 6.86264 297.326 6.72664 297.419 6.67079C297.899 6.37937 298.38 6.08309 298.883 5.83174C299.595 5.47597 300.454 5.3509 300.865 4.54221C301.586 4.64421 301.906 3.99458 302.405 3.69709C303.375 3.11911 304.43 2.72327 305.452 2.27521C306.661 1.74458 308.011 1.59644 309.319 1.37545C310.54 1.16903 311.759 0.934677 312.988 0.802323C315.74 0.506047 318.498 0.302053 321.254 0.805966C321.773 0.900678 322.31 0.911606 322.823 1.02696C325.778 1.69722 328.649 2.61398 330.792 4.86641C331.696 5.81717 332.406 6.93064 332.731 8.32824C332.976 9.38585 332.74 10.4532 333.104 11.4719C333.242 11.8605 332.99 12.2575 332.907 12.6473C332.558 14.2756 332.24 15.9197 331.394 17.3878C330.821 18.381 330.161 19.3245 329.603 20.325C328.569 22.178 326.77 23.3546 325.498 24.9938C325.427 25.0849 325.345 25.1699 325.22 25.3132C326.139 25.4601 327 25.5184 327.848 25.6774C330.55 26.1862 333.132 26.9876 335.452 28.4945C337.074 29.5485 338.456 30.8283 339.384 32.5525C339.592 32.9398 339.829 33.3151 340.038 33.7048C341.013 35.5189 341.512 37.4144 341.275 39.5004C341.181 40.3322 341.1 41.1773 341.096 42.0261C341.093 42.8384 340.609 43.5524 340.434 44.3416C340.104 45.8327 339.137 47.0676 338.697 48.5187C338.653 48.6644 338.529 48.787 338.439 48.9194C337.162 50.8063 335.877 52.6848 334.364 54.4017C332.822 56.1502 331.172 57.7895 329.337 59.2283C327.358 60.7802 325.382 62.3478 323.208 63.6276C322.306 64.1582 321.316 64.5346 320.429 65.115C319.925 65.4453 319.536 66.0209 318.911 66.0804C318.251 66.1435 317.842 66.7895 317.143 66.7105C317.028 66.6972 316.889 66.8878 316.761 66.985C316.634 67.0821 316.503 67.2703 316.381 67.2655C315.426 67.2254 314.836 67.9734 314.051 68.2915C313.379 68.5635 312.726 68.9023 312.033 69.099C311.278 69.3139 310.556 69.632 309.762 69.7486C309.214 69.8287 308.73 70.1214 308.678 70.8038C308.655 71.1122 308.45 71.2142 308.113 71.1851C307.65 71.145 307.152 71.0952 306.715 71.2142C305.924 71.4303 305.225 71.961 304.33 71.8359C304.198 71.8177 304.028 72.0205 303.885 72.1334C303.72 72.2633 303.561 72.2742 303.381 72.1662C302.378 71.5627 301.313 71.355 300.134 71.5275C299.424 71.6307 298.728 71.3733 298.104 70.9993C296.26 69.8931 295.027 68.2344 294.048 66.3973C293.752 65.8411 293.733 65.115 293.687 64.4593C293.623 63.5341 293.522 62.5809 293.672 61.6787C293.891 60.3661 294.149 59.0171 295.238 58.0457C295.432 57.872 295.595 57.6595 295.749 57.4483C296.26 56.744 296.885 56.149 297.486 55.5237C298.389 54.5851 299.633 54.2888 300.631 53.5627C300.776 53.457 300.931 53.4437 301.09 53.525C301.221 53.5918 301.371 53.6646 301.497 53.5882C301.965 53.3028 302.405 53.2627 302.836 53.6574C302.882 53.6987 303.003 53.7059 303.06 53.6768C303.439 53.4777 303.63 53.6719 303.767 53.9913C303.841 54.1625 303.915 54.3386 304.146 54.3216C304.343 54.307 304.416 54.1394 304.46 53.9889C304.578 53.5882 304.664 53.6489 305.003 53.8686C305.401 54.1273 305.946 54.0059 306.424 53.8735C306.599 53.8249 306.778 53.7314 306.95 53.7399C307.881 53.7909 308.689 53.2737 309.575 53.1899C310.896 53.0648 311.938 52.2634 313.148 51.8809C313.762 51.6866 314.387 51.5446 314.984 51.2787C315.825 50.9035 316.549 50.3692 317.305 49.8677C317.818 49.5265 318.413 49.3079 318.927 48.9655C319.498 48.5842 319.974 48.0487 320.568 47.7173C322.246 46.7835 323.512 45.415 324.786 44.0344C325.416 43.352 326.093 42.7364 326.481 41.8524C326.749 41.2417 326.933 40.6455 326.914 39.9861C326.9 39.4543 326.588 39.0779 326.133 38.9297C325.527 38.733 324.913 38.5691 324.235 38.5898C323.388 38.6152 322.523 38.5667 321.698 38.2461C321.144 38.0312 320.533 38.0215 319.943 38.0203C318.534 38.0178 317.164 37.5989 315.741 37.7082C314.474 37.8053 313.202 37.8284 311.936 37.9644C311.691 37.9911 311.535 38.0786 311.5 38.2983C311.439 38.6942 311.225 38.8302 310.837 38.7974C310.642 38.7804 310.459 38.8848 310.44 39.0973C310.396 39.5781 310.063 39.5842 309.73 39.5138C308.907 39.3389 308.219 39.5271 307.494 39.9813C306.539 40.5799 305.538 40.1306 304.562 39.8295C303.587 39.5284 302.758 38.9492 301.846 38.5315C301.553 38.3979 301.249 38.2364 301.03 38.0118C299.666 36.6154 298.434 35.1231 297.658 33.3078C297.136 32.085 296.922 30.8683 297.191 29.5132C297.418 28.3718 297.605 27.228 297.957 26.1158C298.096 25.675 298.496 25.4018 298.663 24.9914C299.038 24.0661 299.964 23.7286 300.637 23.1214C300.769 23.0024 300.943 23.0352 301.101 23.0996C301.256 23.1627 301.436 23.2246 301.564 23.102C301.836 22.8422 302.054 22.9162 302.304 23.1299C302.646 23.4214 302.86 23.272 302.946 22.8895C303.028 22.5313 303.159 22.3552 303.567 22.5447C303.762 22.6357 304.046 22.6382 304.21 22.4755C304.868 21.8258 305.907 21.7797 306.494 21.0341C306.634 20.8556 306.85 20.8338 307.03 20.7779C308.249 20.3991 309.083 19.4665 310.063 18.7429C310.658 18.3045 311.355 18.0519 311.911 17.514C312.598 16.8511 313.4 16.3059 313.966 15.5166C314.171 15.2325 313.851 14.4274 313.489 14.3121C312.369 13.9539 311.269 14.0923 310.183 14.4638C310.029 14.5173 309.843 14.6423 309.719 14.5537C309.129 14.1287 308.501 14.4699 307.898 14.4493C306.431 14.4007 304.967 14.5634 303.554 14.9325C302.516 15.2045 301.447 15.2361 300.412 15.4923C300.126 15.5627 299.808 15.5032 299.491 15.5032C299.371 15.1438 300.084 14.6326 299.284 14.4323C299.287 14.3971 299.288 14.3618 299.29 14.3278C299.55 14.2137 299.813 14.1068 300.067 13.9818C300.342 13.8458 300.458 13.5969 300.348 13.3273C300.227 13.0322 299.956 12.9302 299.64 13.0359C299.488 13.0869 299.342 13.1585 299.201 13.235C298.995 13.3455 298.805 13.3868 298.714 13.1136C298.642 12.8962 298.606 12.6971 298.921 12.589C299.668 12.334 300.398 12.0329 301.146 11.7755C301.466 11.665 301.726 11.5011 301.677 11.1526C301.629 10.8126 301.29 10.9559 301.071 10.9097C300.451 10.7786 299.832 10.69 299.211 10.9085C299.044 10.9668 298.862 10.9316 298.777 10.7786C298.522 10.3233 298.195 10.441 297.862 10.6475C297.546 10.8429 297.19 10.7652 296.856 10.8235C296.846 10.7992 296.83 10.7798 296.808 10.7665L296.806 10.7701ZM297.311 7.85832C297.734 7.82311 298.029 7.55476 298.351 7.35927C298.455 7.29613 298.466 7.1407 298.401 7.02899C298.312 6.87478 298.161 6.91121 298.027 6.96221C297.632 7.11278 297.395 7.39812 297.31 7.85832H297.311Z" fill="#82A1ED"/>
<path d="M260.543 4.12701C260.317 4.59935 260.081 5.06805 259.867 5.54646C259.708 5.8986 259.718 6.2398 260.134 6.40372C260.529 6.55915 260.77 6.38308 260.936 5.99695C261.083 5.65575 261.091 4.98427 261.718 5.29268C262.254 5.55618 261.79 6.02245 261.643 6.30294C261.248 7.06063 261.068 7.89118 260.722 8.65858C260.617 8.89172 260.724 9.01072 260.86 9.12121C261.036 9.26449 261.238 9.27785 261.387 9.069C261.893 8.36109 262.712 7.92518 263.11 7.12013C263.149 7.0412 263.264 6.93314 263.33 6.94163C264.025 7.03635 264.127 6.50815 264.258 6.05523C264.365 5.6861 264.777 5.57682 264.87 5.21497C265 5.94352 264.545 6.48022 264.297 7.08127C264.168 7.39698 263.79 7.71025 264.405 7.97982C264.629 8.07817 264.491 8.37081 264.382 8.5748C264.323 8.6853 264.131 8.80186 264.299 8.933C264.476 9.07143 264.602 8.899 264.696 8.77637C264.831 8.60151 265.006 8.42059 265.046 8.21781C265.198 7.4674 265.66 6.83721 265.84 6.09895C265.946 5.66182 266.329 5.45661 266.707 5.24776C266.264 6.00788 266.233 6.88821 265.911 7.6799C265.685 8.23845 265.735 8.27002 266.382 8.15224C266.786 8.58816 266.257 9.05443 266.46 9.6567C266.474 9.30578 266.668 9.3762 266.778 9.30213C267.11 9.07993 267.225 8.40845 266.985 8.03325C266.759 7.6799 266.578 8.06967 266.373 8.08789C266.332 7.57062 266.488 7.09342 266.674 6.62229C266.761 6.40129 266.821 6.17302 267.155 6.16209C267.54 6.14994 267.546 5.77717 267.589 5.52825C267.654 5.16033 267.764 4.83248 268.054 4.56049C268.012 5.05955 267.797 5.52218 267.708 6.01152C267.599 6.60407 267.31 7.15899 267.245 7.76611C267.216 8.0466 267.226 8.30281 267.53 8.49223C267.721 8.61001 267.672 8.90143 267.592 9.07021C267.352 9.57291 267.439 10.1776 267.223 10.622C266.864 11.3639 266.992 12.1508 266.757 12.8866C266.667 13.1695 266.614 13.4828 266.629 13.7779C266.699 15.1208 266.264 16.3338 265.785 17.5615C265.522 18.2354 265.513 18.9931 265.276 19.6997C264.746 21.2831 263.783 22.6564 263.19 24.2143C262.273 26.6283 261.244 29.0033 260.197 31.3675C259.79 32.2879 259.433 33.2265 259.038 34.1445C258.049 36.4406 257.149 38.7756 256.038 41.022C255.231 42.6563 254.581 44.3672 253.775 46.0028C253.13 47.3154 252.78 48.7446 251.988 50.0098C251.631 50.5793 251.302 51.2727 251.196 52.0024C251.163 52.2319 251.052 52.4905 250.892 52.6557C250.217 53.3551 250.03 54.2925 249.709 55.1376C249.309 56.1964 248.627 57.1193 248.319 58.2084C248.128 58.8811 247.729 59.481 247.647 60.195C247.621 60.4184 247.488 60.6454 247.357 60.8397C246.942 61.4553 246.656 62.1305 246.328 62.7886C245.603 64.2469 245.25 65.8169 244.661 67.3104C244.498 67.7245 244.183 68.0621 244.072 68.5028C243.987 68.8368 243.931 69.1209 244.343 69.3079C244.616 69.4317 244.68 69.643 244.374 69.8531C244.226 69.9551 244.113 70.1069 243.974 70.2222C243.782 70.3813 243.532 70.6047 243.557 70.7953C243.667 71.6356 243.148 72.3083 243.02 73.0781C242.977 73.3368 242.791 73.4873 242.571 73.5128C241.79 73.6027 241.335 74.1382 240.97 74.7162C240.573 75.3415 240.063 75.7531 239.401 76.0749C238.499 76.5145 237.499 76.6092 236.568 76.9419C236.187 77.0779 235.675 76.8095 235.253 76.8897C234.036 77.1204 232.885 76.761 231.709 76.6201C231.689 76.6177 231.664 76.6201 231.649 76.6092C230.542 75.8903 229.279 75.4702 228.139 74.8024C227.258 74.2863 226.784 73.4497 226.109 72.7758C226.027 72.6944 225.943 72.5791 225.93 72.471C225.8 71.4863 225.268 70.6557 224.882 69.7717C224.717 69.3941 224.608 69.014 224.581 68.6085C224.551 68.1483 224.577 67.6917 224.373 67.2449C224.21 66.8891 224.504 66.5491 224.56 66.1946C224.698 65.3288 224.66 64.4145 225.228 63.658C225.34 63.5086 225.277 63.3617 225.206 63.2051C225.108 62.9877 225.206 62.8214 225.405 62.6987C225.602 62.5773 225.939 62.5348 225.882 62.2264C225.817 61.873 225.444 61.9398 225.189 61.856C225.114 61.8318 225.037 61.8148 224.914 61.782C225.331 61.2064 225.147 60.6964 224.889 60.1306C224.559 59.4093 224.284 58.6346 224.062 57.8952C223.692 56.653 222.959 55.6197 222.459 54.4613C222.202 53.8651 222.055 53.2373 221.867 52.6338C221.607 51.8021 221.064 51.1597 220.686 50.4154C220.043 49.1465 219.268 47.914 218.746 46.6172C218.161 45.1674 217.435 43.7856 216.796 42.3698C216.335 41.3498 215.901 40.2728 215.163 39.3524C214.735 38.8181 214.44 38.1284 214.117 37.4921C213.824 36.9142 213.533 36.3398 213.12 35.831C212.946 35.6161 212.754 35.3915 212.828 35.0685C212.844 34.9981 212.828 34.8839 212.78 34.839C211.773 33.9004 211.486 32.5356 210.727 31.4452C209.546 29.7513 208.656 27.8826 207.592 26.1171C207.348 25.7139 207.03 25.3751 206.762 24.9963C206.235 24.2508 205.751 23.5064 205.698 22.5362C205.669 22.0068 205.398 21.5005 205.159 21.0099C204.79 20.2547 204.705 19.3913 204.395 18.6446C203.857 17.3477 203.33 16.0327 202.649 14.7905C202.444 14.4178 202.277 13.9988 202.289 13.5386C202.297 13.2132 201.923 13.0821 201.828 12.7846C201.713 12.4264 201.566 12.1192 202.191 12.2479C202.705 12.3535 202.847 12.118 202.653 11.6493C202.569 11.4453 202.485 11.2352 202.58 10.962C202.892 11.1988 202.963 11.5631 203.144 11.8508C203.252 12.0221 203.314 12.2248 203.44 12.379C203.642 12.6255 203.891 12.6692 204.201 12.5175C204.503 12.3693 204.482 12.1641 204.395 11.9164C204.335 11.7452 204.274 11.5752 204.207 11.4076C204.121 11.1939 204.142 10.9717 204.337 10.8685C204.567 10.7483 204.635 11.0094 204.73 11.1429C205.198 11.7998 205.55 12.5308 206.129 13.1197C206.344 13.3383 206.525 13.3808 206.76 13.297C207.057 13.1902 206.867 12.9643 206.853 12.781C206.796 12.0998 206.794 11.4089 206.505 10.7653C206.477 10.7022 206.481 10.582 206.522 10.5395C206.962 10.089 206.595 9.79512 206.418 9.36406C206.108 8.60273 205.485 7.9956 205.352 7.16141L205.37 7.14563C205.447 7.20998 205.554 7.25855 205.595 7.33991C206.056 8.25181 206.908 8.91358 207.25 9.90076C207.294 10.0295 207.425 10.2492 207.467 10.2383C207.945 10.1169 208.361 10.0683 208.59 10.6512C208.619 10.7264 208.794 10.5965 208.781 10.4508C208.757 10.1813 208.669 9.91897 208.487 9.73198C208.059 9.29364 207.902 8.68651 207.488 8.23967C207.253 7.98589 207.309 7.64833 207.433 7.2792C207.687 7.97618 208.316 8.34531 208.736 8.89172C208.816 8.99493 208.831 9.28271 209.061 9.09814C209.261 8.93786 209.212 8.7278 208.998 8.59908C208.738 8.44123 208.651 8.1571 208.465 7.94825C208.188 7.6374 208.124 7.33505 208.471 7.03149L208.486 7.04242C208.965 7.15534 209.129 7.6374 209.488 7.89239C209.53 7.92275 209.578 8.02839 209.563 8.04174C209.072 8.54444 209.705 8.72294 209.857 9.03257C209.966 9.25235 210.157 9.29849 210.361 9.13335C210.584 8.95365 210.426 8.80915 210.296 8.68408C210.138 8.53352 209.962 8.40238 209.77 8.24209C210.688 7.76368 210.93 8.5578 211.338 8.93543C211.939 9.49034 212.409 10.1691 213.08 10.6706C213.934 11.3093 214.676 12.084 215.528 12.7385C216.035 13.1282 216.364 13.7499 216.764 14.2733C219.031 17.2445 220.75 20.5631 222.807 23.6667C223.408 24.5713 223.825 25.6083 224.495 26.451C225.064 27.1662 225.449 27.9821 226.002 28.6937C226.477 29.3045 226.816 29.9954 227.177 30.6693C227.822 31.8775 228.614 32.9982 229.278 34.1918C229.716 34.9799 230.09 35.8116 230.646 36.5171C231.074 37.0599 231.502 37.6039 231.771 38.2243C232.343 39.5442 233.175 40.7172 233.887 41.9533C234.528 43.0668 235.195 44.1669 235.827 45.2876C236.044 45.6725 236.523 45.896 236.59 46.3926C236.837 46.3659 236.837 46.1728 236.901 46.0392C237.449 44.8991 237.903 43.703 238.559 42.6284C239.7 40.756 240.593 38.7465 241.81 36.919C241.899 36.7854 241.981 36.641 242.03 36.4892C242.497 35.0466 243.208 33.7146 243.867 32.3547C245.009 29.9966 246.036 27.5839 247.177 25.2246C248.109 23.2976 248.841 21.2843 249.828 19.3816C250.311 18.4503 250.678 17.4619 251.136 16.5172C251.746 15.2544 252.695 14.2053 253.448 13.0299C254.215 11.8326 255.114 10.7264 255.772 9.44663C256.287 8.44609 256.835 7.44069 257.462 6.51665C258.038 5.66789 258.49 4.72563 259.158 3.90723C259.225 3.99101 259.266 4.01651 259.266 4.04565C259.28 4.38078 259.335 4.79849 259.652 4.87134C260.003 4.95148 260.097 4.49978 260.274 4.25207C260.309 4.2035 260.361 4.16829 260.405 4.12701C260.449 4.12701 260.492 4.12579 260.536 4.12458L260.543 4.12701Z" fill="#82A1ED"/>
<path d="M135.697 55.106C136.006 55.0319 136.313 54.9493 136.624 54.8862C136.892 54.8316 137.093 54.7441 137.023 54.4127C136.997 54.29 137.011 54.1722 137.148 54.1067C137.285 54.0411 137.603 54.0909 137.436 53.8104C137.349 53.6635 137.069 53.5433 136.897 53.6744C136.543 53.9452 136.09 53.7108 135.737 53.9573C135.616 54.0423 135.436 53.9682 135.38 53.8213C135.321 53.6671 135.488 53.6355 135.588 53.5845C135.861 53.4485 136.131 53.3077 136.41 53.1863C136.585 53.111 136.693 53.0187 136.607 52.822C136.492 52.5573 136.381 52.7552 136.239 52.8123C135.909 52.9434 135.589 53.3672 135.209 52.8086C135.063 52.5937 134.731 52.9859 134.433 52.8268C134.876 52.3788 135.539 52.4225 136.022 52.0995C136.262 52.4941 136.531 52.363 136.809 52.1456C136.925 52.0546 137.04 51.9599 136.987 51.7959C136.92 51.5871 136.75 51.6769 136.631 51.7158C136.42 51.785 136.322 51.7777 136.255 51.5179C136.195 51.2847 136.256 51.167 136.444 51.0941C137.9 50.5295 139.022 49.4197 140.365 48.7093C141.264 48.2333 142.201 47.5194 143.354 47.6845C143.987 47.7744 144.46 47.3615 145.037 47.2777C146.738 47.0312 148.458 46.8418 150.114 46.4156C151.007 46.1861 151.928 46.0465 152.8 45.7453C153.38 45.545 153.98 45.4916 154.57 45.3677C156.136 45.0399 157.723 44.8456 159.29 44.4837C160.279 44.2555 161.339 43.93 162.419 44.0515C162.857 44.1013 163.158 43.6835 163.594 43.6568C164.648 43.5901 165.684 43.4371 166.646 42.9538C166.852 42.8494 167.076 43.0072 167.294 43.0084C168.203 43.0121 169 42.5944 169.834 42.3224C170.058 42.2495 170.243 42.1572 170.505 42.1524C171.48 42.133 171.672 41.9241 171.788 40.9308C172.252 41.0511 172.753 41.4348 173.108 40.7317C173.217 40.5156 173.538 40.8823 173.653 40.739C174.143 40.1294 174.241 40.7353 174.458 40.9673C174.798 41.3291 175.151 41.6594 175.711 41.5841C175.892 41.5598 176.004 41.6679 176.121 41.7966C178.128 44.0369 179.185 46.6888 179.57 49.6297C179.695 50.5853 179.869 51.541 179.899 52.5002C179.96 54.3556 179.62 56.1612 178.746 57.8077C178.244 58.7524 177.705 59.742 176.676 60.258C176.187 60.5033 175.683 60.4948 175.097 60.3285C174.437 60.1403 174.447 59.5841 174.148 59.13C174.057 59.317 173.987 59.419 173.957 59.5319C173.853 59.9108 173.697 59.8549 173.545 59.5756C173.344 59.2089 173.055 59.147 172.669 59.2344C172.179 59.3461 171.75 59.0195 171.245 59.0317C170.238 59.0572 169.234 59.0899 168.23 59.1616C167.909 59.1846 167.551 59.1422 167.289 59.0802C166.22 58.8252 165.219 59.3571 164.148 59.2016C163.453 59.1009 162.699 59.4396 161.937 59.4324C161.197 59.4251 160.451 59.4542 159.707 59.4906C158.507 59.5501 157.321 59.6436 156.156 59.9411C155.909 60.0043 155.677 60.0079 155.436 59.946C155.167 59.878 154.919 59.9363 154.665 60.0419C154.056 60.2957 153.424 60.4098 152.755 60.3904C152.312 60.3783 151.85 60.4062 151.425 60.5228C149.322 61.0971 147.14 61.1736 145.007 61.5512C144.823 61.584 144.646 61.5743 144.465 61.5233C143.078 61.1347 141.65 61.1408 140.225 61.0412C139.104 60.9635 137.967 61.0364 136.827 60.83C136.908 60.683 136.986 60.5653 137.039 60.4378C137.235 59.9666 137.073 59.7007 136.557 59.6594C135.863 59.6048 135.225 60.0225 134.517 59.8913C134.301 59.8513 134.071 59.8853 133.844 59.8416C134.876 59.708 135.878 59.3716 136.936 59.4214C137.264 59.4372 137.633 59.5016 137.643 59.0037C137.65 58.5739 137.605 58.1623 137.001 58.2108C136.749 58.2315 136.596 58.0955 136.583 57.872C136.567 57.6231 136.795 57.6219 136.974 57.5952C137.455 57.5236 137.933 57.4701 138.382 57.2418C138.624 57.118 138.708 56.965 138.707 56.7246C138.706 56.4866 138.567 56.3494 138.357 56.2826C137.971 56.1587 137.625 55.9244 137.21 55.8843C137.189 55.8819 137.16 55.8904 137.15 55.8795C136.757 55.4569 136.277 55.2189 135.644 55.2991L135.701 55.1011L135.697 55.106Z" fill="#82A1ED"/>
<path d="M139.707 83.074C140.337 82.8384 140.973 82.6454 141.663 82.7207C142.081 82.7656 142.334 82.6102 142.284 82.139C142.241 81.731 142.137 81.4068 141.609 81.5695C141.46 81.6157 141.312 81.6278 141.292 81.4226C141.274 81.232 141.189 80.9916 141.461 80.9078C141.692 80.8361 141.937 80.79 142.178 80.7742C142.48 80.756 142.738 80.6273 142.959 80.4609C143.233 80.2533 143.222 79.8623 142.969 79.7555C142.558 79.5818 142.229 79.2333 141.77 79.1848C141.542 79.1605 141.38 79.09 141.315 78.8654C141.249 78.6371 141.115 78.5934 140.902 78.6893C140.576 78.8363 140.228 78.8071 139.861 78.7986C140.132 78.5449 140.372 78.3129 140.773 78.2704C141.124 78.2328 141.561 78.3008 141.478 77.6123C141.417 77.1072 141.573 77.1363 140.914 77.1642C140.603 77.1776 140.375 77.1545 140.128 77.4059C139.988 77.548 139.795 77.2784 139.566 77.1181C140.119 77.0392 140.417 76.5996 140.901 76.4903C141.078 76.4503 141.091 76.2803 141.028 76.1455C140.951 75.9828 140.758 75.9791 140.667 76.0787C140.338 76.4381 140.037 76.4697 139.627 76.1771C139.402 76.0156 139.107 76.3677 138.771 76.2208C139.372 75.8225 140.152 75.7533 140.552 75.1097C140.647 75.3016 140.446 75.5627 140.696 75.7181C140.847 75.6234 140.991 75.5238 141.143 75.4364C141.297 75.3477 141.314 75.2202 141.257 75.0757C141.198 74.9264 141.061 74.9482 140.946 74.9762C140.809 75.009 140.679 75.0685 140.547 75.1158C140.513 74.4468 141.107 74.2173 141.51 73.9611C142.239 73.4972 142.954 73.0625 143.57 72.4287C144.049 71.9357 144.759 71.6928 145.373 71.3577C146.419 70.787 147.566 70.6765 148.644 70.3086C149.996 69.8472 151.453 69.6942 152.854 69.3603C153.834 69.1259 154.793 68.8078 155.763 68.5322C156.223 68.401 156.694 68.3063 157.144 68.1497C157.765 67.9323 158.437 67.9566 159.051 67.6737C159.595 67.4235 160.23 67.551 160.822 67.3276C161.748 66.9803 162.724 66.7205 163.703 66.5687C164.791 66.4011 165.862 66.1 166.876 65.7709C168.29 65.312 169.82 65.2088 171.142 64.4608C171.323 64.3576 171.572 64.3442 171.791 64.3369C172.359 64.3175 172.586 64.0066 172.573 63.4833C172.566 63.1761 172.614 63.0571 172.983 63.1725C173.296 63.2708 173.699 63.3121 173.729 62.7693C173.735 62.6698 173.849 62.5787 173.953 62.6613C174.161 62.8252 174.302 62.8507 174.515 62.6285C174.677 62.4597 174.775 62.6928 174.866 62.8215C175.145 63.2222 175.486 63.4724 176.023 63.4554C176.753 63.4323 177.16 63.9654 177.492 64.4948C178.572 66.2239 179.653 67.9627 180.159 69.9638C180.567 71.5811 181.063 73.1864 181.133 74.8693C181.197 76.3786 181.132 77.8879 180.623 79.3244C180.226 80.45 179.598 81.4809 178.605 82.1791C178.329 82.3734 177.777 82.513 177.36 82.1949C177.296 82.1463 177.231 82.02 177.194 82.0297C176.521 82.2107 176.589 81.6157 176.396 81.1834C176.133 81.7578 175.89 81.8185 175.62 81.283C175.532 81.1069 175.313 81.0984 175.125 81.1506C174.482 81.3291 173.831 81.2963 173.197 81.1446C172.5 80.9782 171.863 81.2466 171.221 81.3789C170.715 81.4821 170.284 81.2478 169.794 81.2976C169.181 81.3607 168.556 81.6035 167.988 81.544C167.026 81.4433 166.191 81.9739 165.201 81.8245C164.334 81.6934 163.396 82.1196 162.489 82.1123C161.649 82.105 160.875 82.3527 160.079 82.4887C159.434 82.5992 158.774 82.7255 158.136 82.9089C157.633 83.0534 157.123 83.176 156.595 83.1906C155.569 83.2197 154.588 83.5208 153.614 83.771C152.702 84.0053 151.784 84.1316 150.863 84.2603C150.35 84.332 149.889 84.5445 149.392 84.6367C149.196 84.6732 148.981 84.8213 148.8 84.7023C148.223 84.3223 147.595 84.5129 146.984 84.502C146.765 84.4983 146.552 84.525 146.366 84.3295C146.269 84.2275 146.049 84.1535 145.917 84.1887C145.1 84.4036 144.271 84.0891 143.457 84.27C142.978 84.3769 142.509 84.1668 142.021 84.2288C141.849 84.2506 141.655 84.0745 141.715 83.7552C141.852 83.0364 141.619 82.8384 140.901 83.0109C140.506 83.1056 140.119 83.2416 139.703 83.1869C139.703 83.1505 139.703 83.1153 139.708 83.0789V83.074H139.707Z" fill="#82A1ED"/>
<path d="M136.573 38.0675C136.78 37.7737 136.964 37.8417 137.107 37.7846C137.368 37.6814 137.706 37.6498 137.63 37.2491C137.566 36.9079 137.488 36.5376 136.996 36.6153C136.726 36.6578 136.622 36.5011 136.558 36.2996C136.474 36.0336 136.677 35.9365 136.869 35.8637C137.194 35.741 137.495 35.5819 137.78 35.3816C138.17 35.1072 138.092 34.8255 137.754 34.6288C137.444 34.4478 137.08 34.3507 136.731 34.2438C136.488 34.1686 136.214 34.2183 136.05 33.9294C135.942 33.7387 135.734 33.8662 135.554 33.8917C135.098 33.9573 134.683 34.2171 134.19 34.1455C134.843 33.9949 135.286 33.4546 135.921 33.2761C136.109 33.2239 136.2 33.117 136.113 32.9179C136.065 32.8086 135.998 32.7042 136.087 32.5803C136.17 32.465 136.545 32.4698 136.283 32.2173C136.118 32.0582 135.899 32.1177 135.669 32.2233C135.286 32.4006 134.87 32.5087 134.46 32.618C134.369 32.6423 134.214 32.6374 134.112 32.4698C134.457 32.2403 134.795 31.9999 135.151 31.7874C135.348 31.6696 135.433 31.5494 135.265 31.3649C135.099 31.1815 135.041 31.3139 134.91 31.4535C134.689 31.6891 134.417 31.9841 134.081 31.5276C134.021 31.4462 133.79 31.4899 133.582 31.4705C133.852 31.2519 134.081 31.054 134.323 30.8743C134.441 30.7869 134.581 30.7092 134.575 30.5562C134.531 29.4986 135.48 29.1185 136.06 28.5332C136.613 27.9747 137.029 27.3008 137.654 26.8017C138.355 26.2419 139.087 25.7781 139.943 25.483C141.401 24.9816 142.828 24.3914 144.297 23.9264C145.544 23.5317 146.734 22.972 148.014 22.683C148.477 22.5786 148.817 22.2325 149.28 22.1086C149.979 21.9216 150.71 21.7978 151.379 21.5962C152.247 21.3339 153.201 21.2429 153.994 20.7426C154.281 20.5605 154.618 20.4961 154.917 20.5058C155.453 20.5228 155.875 20.2703 156.335 20.0954C156.372 20.0808 156.409 20.0323 156.439 20.0371C157.35 20.1828 158.045 19.3414 158.975 19.5004C159.226 19.5429 159.549 19.4239 159.78 19.2843C160.695 18.7306 161.734 18.7573 162.734 18.5825C163.08 18.5217 163.34 18.2425 163.666 18.0968C164.082 17.9098 164.501 17.8114 164.929 17.7349C165.32 17.6657 165.515 17.4848 165.51 17.0974C165.507 16.7441 165.513 16.4296 165.988 16.7842C166.126 16.8874 166.346 16.9104 166.449 16.8036C166.712 16.5304 167.021 16.4405 167.359 16.3033C167.753 16.143 167.794 16.2669 167.926 16.4842C168.162 16.8728 168.498 17.1217 168.955 17.1071C169.328 17.095 169.567 17.2504 169.777 17.5224C170.501 18.4562 171.161 19.3972 171.623 20.5216C172.085 21.6436 172.474 22.7753 172.786 23.9373C173.048 24.9136 173.055 25.9311 173.198 26.9268C173.383 28.2078 173.417 29.5362 173.157 30.7662C172.933 31.8251 172.752 32.9373 172.21 33.9573C171.822 34.687 171.302 35.2492 170.775 35.8394C170.555 36.0859 169.831 36.0227 169.536 35.8515C169.153 35.6281 168.954 35.3172 168.701 34.9748C168.363 34.5183 168.571 35.35 168.204 35.2019C167.892 34.3155 166.986 34.9396 166.348 34.6968C165.546 34.3908 164.704 34.9469 163.896 34.7781C162.52 34.4915 161.228 35.0525 159.885 35.1023C159.312 35.123 158.657 35.3767 158.053 35.4217C157.33 35.4751 156.607 35.6633 155.903 35.6342C154.987 35.5953 154.265 36.0519 153.453 36.268C152.931 36.4064 152.395 36.4756 151.869 36.6201C150.69 36.9431 149.473 37.0852 148.314 37.5417C147.112 38.0165 145.862 38.4111 144.612 38.7317C143.774 38.9466 142.836 38.7888 141.944 38.7766C141.535 38.7706 141.142 38.6868 140.717 38.7645C139.769 38.9369 138.806 39.0401 137.847 39.1494C137.67 39.1701 137.372 39.1907 137.423 38.875C137.521 38.2703 137.452 37.8489 136.57 38.0663H136.573V38.0675ZM135.062 30.8112C135.257 30.7565 135.457 30.6837 135.476 30.4505C135.488 30.2927 135.406 30.0863 135.231 30.1057C135.01 30.13 134.843 30.3012 134.822 30.5477C134.808 30.708 134.877 30.8136 135.063 30.8099H135.062V30.8112Z" fill="#82A1ED"/>
</g>
<defs>
<clipPath id="clip0_248_2977">
<rect width="394.667" height="92" fill="white" transform="translate(0.5 0.5)"/>
</clipPath>
</defs>
</svg>
