<?xml version="1.0" encoding="utf-8"?>
<!-- Generator: Adobe Illustrator 26.0.1, SVG Export Plug-In . SVG Version: 6.00 Build 0)  -->
<svg version="1.1" id="Layer_1" xmlns="http://www.w3.org/2000/svg" xmlns:xlink="http://www.w3.org/1999/xlink" x="0px" y="0px"
	 viewBox="0 0 200 200" style="enable-background:new 0 0 200 200;" xml:space="preserve">
<style type="text/css">
	.st0{fill:url(#SVGID_1_);}
	.st1{fill:url(#SVGID_00000005979551013650486150000001635768980465324704_);}
</style>
<linearGradient id="SVGID_1_" gradientUnits="userSpaceOnUse" x1="57.9553" y1="97.4971" x2="200.867" y2="101.7315">
	<stop  offset="8.151518e-07" style="stop-color:#732DCF"/>
	<stop  offset="9.516673e-02" style="stop-color:#5F18D6"/>
	<stop  offset="0.9794" style="stop-color:#AB2DCF"/>
</linearGradient>
<polygon class="st0" points="196.9,5.6 88.3,5.6 63.5,35.8 85,62 104.8,38 151.6,38 151.6,38.1 151.6,38.1 100.6,100.1 151.5,162 
	104.5,162 85.1,138.4 63.5,164.7 87.9,194.4 196.9,194.4 196.9,162.1 146,100.2 196.9,38.3 "/>
<linearGradient id="SVGID_00000033339118975552834070000002266950255899295616_" gradientUnits="userSpaceOnUse" x1="438.3735" y1="397.4893" x2="536.3093" y2="397.4893" gradientTransform="matrix(-1 0 0 -1 539.3617 497.4893)">
	<stop  offset="8.151518e-07" style="stop-color:#5E7DFC"/>
	<stop  offset="6.388633e-02" style="stop-color:#476CFC"/>
	<stop  offset="0.1461" style="stop-color:#315CFB"/>
	<stop  offset="0.2432" style="stop-color:#2050FB"/>
	<stop  offset="0.3633" style="stop-color:#1547FB"/>
	<stop  offset="0.532" style="stop-color:#0E42FB"/>
	<stop  offset="1" style="stop-color:#0C41FB"/>
</linearGradient>
<polygon style="fill:url(#SVGID_00000033339118975552834070000002266950255899295616_);" points="49.9,38 101,100.1 50.1,162 
	3.2,162 54.1,100.1 3.1,38.1 3.1,38.1 3.1,38 "/>
</svg>
