<svg xmlns="http://www.w3.org/2000/svg" version="1.1" xmlns:xlink="http://www.w3.org/1999/xlink" xmlns:svgjs="http://svgjs.dev/svgjs" width="128" height="128" viewBox="0 0 128 128"><g transform="matrix(0.8046875,0,0,0.8046875,12.333870967741937,43.93382663401978)"><svg viewBox="0 0 155 61" data-background-color="#ffffff" preserveAspectRatio="xMidYMid meet" height="50" width="128" xmlns="http://www.w3.org/2000/svg" xmlns:xlink="http://www.w3.org/1999/xlink"><g id="tight-bounds" transform="matrix(1,0,0,1,0.25,-0.07734337056824359)"><svg viewBox="0 0 154.5 61.154686741136466" height="61.154686741136466" width="154.5"><g><svg viewBox="0 0 154.5 61.154686741136466" height="61.154686741136466" width="154.5"><g><svg viewBox="0 0 154.5 61.154686741136466" height="61.154686741136466" width="154.5"><g id="textblocktransform"><svg viewBox="0 0 154.5 61.154686741136466" height="61.154686741136466" width="154.5" id="textblock"><g><svg viewBox="0 0 154.5 61.154686741136466" height="61.154686741136466" width="154.5"><g transform="matrix(1,0,0,1,0,0)"><svg width="154.5" viewBox="2.3 -40.2 102.95 40.75" height="61.154686741136466" data-palette-color="#ffffff"><path d="M23.65-39.75Q28.9-39.75 32.93-37.27 36.95-34.8 39.18-30.4 41.4-26 41.4-20.45L41.4-20.45Q41.4-14.75 38.02-9.93 34.65-5.1 29.65-2.27 24.65 0.55 20.1 0.55L20.1 0.55Q17.7 0.55 15.45 0.3L15.45 0.3Q11.55 0.05 9.55 0.05L9.55 0.05 2.9 0.05 2.9-1.75 7.6-5.45 7.6-35.35 2.3-37.05 3.45-39.3 9.5-39.3Q14.2-39.3 18.7-39.6L18.7-39.6Q22.1-39.8 23.65-39.8L23.65-39.8 23.65-39.75ZM21.5-3.4Q25-3.4 27.85-5.3 30.7-7.2 32.35-10.58 34-13.95 34-18.15L34-18.15Q34-23.2 32.45-27.33 30.9-31.45 27.7-33.9 24.5-36.35 19.75-36.35L19.75-36.35Q16.8-36.35 14.4-34.65L14.4-34.65 14.4-4.55Q17.45-3.35 21.5-3.35L21.5-3.35 21.5-3.4ZM64.45-2.3L63.35-0.05 47.65-0.05 47.65-1.85 52.35-5.55 52.35-35.35 47.05-37.05 48.2-39.3 63.9-39.3 63.9-37.5 59.15-33.75 59.15-4 64.45-2.3ZM105.25-40.2L105.25-27.45 103.5-26.85 96.75-36.75 90.95-36.75 90.95-3.95 96.25-2.25 95.15 0 79.45 0 79.45-1.8 84.15-5.5 84.15-36.75 78.5-36.75 71.75-26.85 70-27.45 70-40.2 72.9-39.3 102.34-39.3 105.25-40.2Z" opacity="1" transform="matrix(1,0,0,1,0,0)" fill="#ffffff" class="wordmark-text-0" data-fill-palette-color="primary" id="text-0"></path></svg></g></svg></g></svg></g></svg></g></svg></g><defs></defs></svg><rect width="154.5" height="61.154686741136466" fill="none" stroke="none" visibility="hidden"></rect></g></svg></g></svg>